<?xml version="1.0" encoding="UTF-8" standalone="no"?>
<svg
   xmlns:dc="http://purl.org/dc/elements/1.1/"
   xmlns:cc="http://creativecommons.org/ns#"
   xmlns:rdf="http://www.w3.org/1999/02/22-rdf-syntax-ns#"
   xmlns:svg="http://www.w3.org/2000/svg"
   xmlns="http://www.w3.org/2000/svg"
   xmlns:sodipodi="http://sodipodi.sourceforge.net/DTD/sodipodi-0.dtd"
   xmlns:inkscape="http://www.inkscape.org/namespaces/inkscape"
   width="210mm"
   height="297mm"
   viewBox="0 0 210 297"
   version="1.1"
   id="svg8"
   inkscape:version="1.0 (6e3e5246a0, 2020-05-07)"
   sodipodi:docname="all.svg">
  <defs
     id="defs2">
    <marker
       inkscape:stockid="Arrow2Lend"
       orient="auto"
       refY="0.0"
       refX="0.0"
       id="Arrow2Lend"
       style="overflow:visible;"
       inkscape:isstock="true">
      <path
         id="path980"
         style="fill-rule:evenodd;stroke-width:0.625;stroke-linejoin:round;stroke:#ffffff;stroke-opacity:1;fill:#ffffff;fill-opacity:1"
         d="M 8.7185878,4.0337352 L -2.2072895,0.016013256 L 8.7185884,-4.0017078 C 6.9730900,-1.6296469 6.9831476,1.6157441 8.7185878,4.0337352 z "
         transform="scale(1.1) rotate(180) translate(1,0)" />
    </marker>
    <marker
       inkscape:stockid="Arrow1Sstart"
       orient="auto"
       refY="0.0"
       refX="0.0"
       id="Arrow1Sstart"
       style="overflow:visible"
       inkscape:isstock="true">
      <path
         id="path971"
         d="M 0.0,0.0 L 5.0,-5.0 L -12.5,0.0 L 5.0,5.0 L 0.0,0.0 z "
         style="fill-rule:evenodd;stroke:#ffffff;stroke-width:1pt;stroke-opacity:1;fill:#ffffff;fill-opacity:1"
         transform="scale(0.2) translate(6,0)" />
    </marker>
    <marker
       inkscape:stockid="Arrow1Send"
       orient="auto"
       refY="0.0"
       refX="0.0"
       id="marker1397"
       style="overflow:visible;"
       inkscape:isstock="true">
      <path
         id="path1395"
         d="M 0.0,0.0 L 5.0,-5.0 L -12.5,0.0 L 5.0,5.0 L 0.0,0.0 z "
         style="fill-rule:evenodd;stroke:#ffffff;stroke-width:1pt;stroke-opacity:1;fill:#ffffff;fill-opacity:1"
         transform="scale(0.2) rotate(180) translate(6,0)" />
    </marker>
    <marker
       inkscape:stockid="Arrow2Mend"
       orient="auto"
       refY="0.0"
       refX="0.0"
       id="marker1339"
       style="overflow:visible;"
       inkscape:isstock="true">
      <path
         id="path1337"
         style="fill-rule:evenodd;stroke-width:0.625;stroke-linejoin:round;stroke:#ffffff;stroke-opacity:1;fill:#ffffff;fill-opacity:1"
         d="M 8.7185878,4.0337352 L -2.2072895,0.016013256 L 8.7185884,-4.0017078 C 6.9730900,-1.6296469 6.9831476,1.6157441 8.7185878,4.0337352 z "
         transform="scale(0.6) rotate(180) translate(0,0)" />
    </marker>
    <marker
       inkscape:stockid="Arrow1Send"
       orient="auto"
       refY="0.0"
       refX="0.0"
       id="Arrow1Send"
       style="overflow:visible;"
       inkscape:isstock="true">
      <path
         id="path974"
         d="M 0.0,0.0 L 5.0,-5.0 L -12.5,0.0 L 5.0,5.0 L 0.0,0.0 z "
         style="fill-rule:evenodd;stroke:#ffffff;stroke-width:1pt;stroke-opacity:1;fill:#ffffff;fill-opacity:1"
         transform="scale(0.2) rotate(180) translate(6,0)" />
    </marker>
    <marker
       inkscape:stockid="Arrow2Mend"
       orient="auto"
       refY="0.0"
       refX="0.0"
       id="Arrow2Mend"
       style="overflow:visible;"
       inkscape:isstock="true">
      <path
         id="path986"
         style="fill-rule:evenodd;stroke-width:0.625;stroke-linejoin:round;stroke:#ffffff;stroke-opacity:1;fill:#ffffff;fill-opacity:1"
         d="M 8.7185878,4.0337352 L -2.2072895,0.016013256 L 8.7185884,-4.0017078 C 6.9730900,-1.6296469 6.9831476,1.6157441 8.7185878,4.0337352 z "
         transform="scale(0.6) rotate(180) translate(0,0)" />
    </marker>
    <marker
       inkscape:stockid="Arrow1Mend"
       orient="auto"
       refY="0.0"
       refX="0.0"
       id="Arrow1Mend"
       style="overflow:visible;"
       inkscape:isstock="true">
      <path
         id="path968"
         d="M 0.0,0.0 L 5.0,-5.0 L -12.5,0.0 L 5.0,5.0 L 0.0,0.0 z "
         style="fill-rule:evenodd;stroke:#ffffff;stroke-width:1pt;stroke-opacity:1;fill:#ffffff;fill-opacity:1"
         transform="scale(0.4) rotate(180) translate(10,0)" />
    </marker>
    <marker
       inkscape:stockid="Arrow1Lend"
       orient="auto"
       refY="0.0"
       refX="0.0"
       id="Arrow1Lend"
       style="overflow:visible;"
       inkscape:isstock="true">
      <path
         id="path962"
         d="M 0.0,0.0 L 5.0,-5.0 L -12.5,0.0 L 5.0,5.0 L 0.0,0.0 z "
         style="fill-rule:evenodd;stroke:#ffffff;stroke-width:1pt;stroke-opacity:1;fill:#ffffff;fill-opacity:1"
         transform="scale(0.8) rotate(180) translate(12.5,0)" />
    </marker>
    <filter
       height="2.5619132"
       y="-0.78095662"
       width="3.3428669"
       x="-1.1714335"
       id="filter1663"
       style="color-interpolation-filters:sRGB"
       inkscape:collect="always">
      <feGaussianBlur
         id="feGaussianBlur1665"
         stdDeviation="1.3014479"
         inkscape:collect="always" />
    </filter>
    <filter
       height="2.0205421"
       y="-0.51027107"
       width="2.0205421"
       x="-0.51027107"
       id="filter1937"
       style="color-interpolation-filters:sRGB"
       inkscape:collect="always">
      <feGaussianBlur
         id="feGaussianBlur1939"
         stdDeviation="11.082155"
         inkscape:collect="always" />
    </filter>
  </defs>
  <sodipodi:namedview
     id="base"
     pagecolor="#0c0c0c"
     bordercolor="#666666"
     borderopacity="1.0"
     inkscape:pageopacity="0"
     inkscape:pageshadow="2"
     inkscape:zoom="1.979899"
     inkscape:cx="750.52197"
     inkscape:cy="369.9121"
     inkscape:document-units="mm"
     inkscape:current-layer="layer1"
     showgrid="true"
     inkscape:snap-global="true"
     inkscape:snap-object-midpoints="true"
     inkscape:window-width="1024"
     inkscape:window-height="656"
     inkscape:window-x="56"
     inkscape:window-y="27"
     inkscape:window-maximized="1"
     inkscape:document-rotation="0">
    <inkscape:grid
       empspacing="2"
       spacingy="4.2333333"
       spacingx="4.2333333"
       type="xygrid"
       id="grid815" />
  </sodipodi:namedview>
  <metadata
     id="metadata5">
    <rdf:RDF>
      <cc:Work
         rdf:about="">
        <dc:format>image/svg+xml</dc:format>
        <dc:type
           rdf:resource="http://purl.org/dc/dcmitype/StillImage" />
        <dc:title></dc:title>
      </cc:Work>
    </rdf:RDF>
  </metadata>
  <g
     inkscape:label="Layer 1"
     inkscape:groupmode="layer"
     id="layer1">
    <rect
       inkscape:export-ydpi="40.615246"
       inkscape:export-xdpi="40.615246"
       style="opacity:1;fill:#333333;fill-opacity:1;stroke:none;stroke-width:0.396875;stroke-linecap:butt;stroke-linejoin:miter;stroke-miterlimit:4.5;stroke-dasharray:none;stroke-opacity:1"
       id="rect1314"
       width="2.4710226"
       height="2.4710226"
       x="-49.583931"
       y="315.0545"
       transform="rotate(-45)" />
    <path
       sodipodi:nodetypes="ccccccccccccccccccccccccccccccccccccccccccccccc"
       d="m 70.765812,150.95156 -4.00699,4.51551 c 1.13842,-0.0647 1.738649,-0.037 2.352829,0.98186 h 3.208073 c 0.63401,-1.04948 1.285504,-1.07764 2.458765,-0.97049 z m -17.88883,-0.15345 5.291666,15.875 5.291667,6.61458 6.614583,-6.61458 h 1.322917 l 6.614583,6.61458 5.291667,-6.61458 5.291666,-15.875 -5.291666,5.29167 -2.645834,2.64583 -3.555854,-1.73581 c -0.07027,0.0465 -0.137208,0.0943 -0.209807,0.14004 -1.736479,-1.28648 -4.223133,-0.48524 -4.881872,1.57303 -0.408921,0.0352 -0.835281,0.0548 -1.29191,0.0548 -0.433641,5.3e-4 -0.867106,-0.018 -1.299146,-0.0553 -0.65708,-2.05778 -3.141724,-2.8607 -4.878772,-1.57665 -0.03618,-0.0227 -0.06879,-0.0468 -0.104388,-0.0698 l -3.622,1.66967 -2.645834,-2.64583 z m 20.880379,7.18716 -0.849043,1.69808 c -0.0036,-0.66895 0.311743,-1.29959 0.849043,-1.69808 z m -6.011003,0.062 c 0.46209,0.37872 0.740979,0.93634 0.766879,1.53324 z m 2.32854,9.94875 -2.645833,2.64583 2.645833,-0.79375 h 1.322917 l 2.645833,0.79375 -2.645833,-2.64583 z m -11.479919,0.62373 -2.645833,2.64583 3.96875,-1.32291 z m 24.341667,0 -1.322917,1.32292 3.96875,1.32291 z"
       style="fill:#b59232;fill-opacity:1;stroke:none;stroke-width:0.264583px;stroke-linecap:butt;stroke-linejoin:miter;stroke-opacity:1"
       id="path1218" />
    <path
       transform="scale(0.26458333)"
       d="M 260 715 L 255 720 L 285 720 L 280 715 L 260 715 z M 245 725 L 235 735 L 235 760 L 245 770 L 250 770 L 250 780 L 245 780 L 235 790 L 235 820 L 240 825 L 245 825 L 250 830 L 300 830 L 305 825 L 305 815 L 280 815 L 290 805 L 290 785 L 285 780 L 270 780 L 270 770 L 284.70312 770 L 290 765 L 290 750 L 280 740 L 305 740 L 305 735 L 294.2207 725 L 245 725 z "
       style="fill:#ac3f3f;fill-opacity:1;stroke:none;stroke-width:0.999999px;stroke-linecap:butt;stroke-linejoin:miter;stroke-opacity:1"
       id="path1150" />
    <path
       id="path949"
       style="fill:#3f68ac;fill-opacity:1;stroke:none;stroke-width:0.999999px;stroke-linecap:butt;stroke-linejoin:miter;stroke-opacity:1"
       d="M 240 1020 L 220 1045 L 200 1105 L 220 1085 L 230 1095 L 243.68945 1081.3105 C 243.82387 1081.2235 243.94734 1081.1329 244.08398 1081.0469 C 250.64918 1085.9 260.03998 1082.8653 262.52344 1075.0879 C 264.15634 1074.9468 265.79461 1074.8771 267.43359 1074.8789 C 269.15944 1074.8789 270.77087 1074.9529 272.31641 1075.0859 C 274.80612 1082.8652 284.2045 1085.8935 290.76758 1081.0312 C 291.04205 1081.2038 291.29496 1081.3846 291.56055 1081.5605 L 305 1095 L 315 1085 L 335 1105 L 315 1045 L 295 1020 L 270 1045 L 265 1045 L 240 1020 z M 265 1025 L 255 1030 L 265 1040 L 270 1040 L 280 1030 L 270 1025 L 265 1025 z M 275.70898 1071.418 L 278.91797 1077.8359 C 276.88722 1076.3298 275.69546 1073.9463 275.70898 1071.418 z M 259.09766 1071.8066 C 258.99986 1074.0626 257.94573 1076.1702 256.19922 1077.6016 L 259.09766 1071.8066 z "
       transform="scale(0.26458333)" />
    <g
       id="g1710"
       inkscape:export-xdpi="299.74536"
       inkscape:export-ydpi="299.74536">
      <rect
         ry="1.2048181"
         y="270.77789"
         x="4.2049837"
         height="4.8192167"
         width="4.8191986"
         id="rect831"
         style="opacity:1;fill:#999999;fill-opacity:1;stroke:none;stroke-width:0.5291667;stroke-linecap:square;stroke-linejoin:round;stroke-miterlimit:4;stroke-dasharray:none;stroke-opacity:1" />
      <text
         id="text843"
         y="274.44504"
         x="6.6100464"
         style="font-style:normal;font-variant:normal;font-weight:500;font-stretch:normal;font-size:3.62923px;line-height:1.25;font-family:Ubuntu;-inkscape-font-specification:'Ubuntu Medium';letter-spacing:0px;word-spacing:0px;fill:#ffffff;fill-opacity:1;stroke:none;stroke-width:0.264583"
         xml:space="preserve"><tspan
           style="font-style:normal;font-variant:normal;font-weight:500;font-stretch:normal;font-family:Ubuntu;-inkscape-font-specification:'Ubuntu Medium';text-align:center;text-anchor:middle;fill:#ffffff;stroke-width:0.264583"
           y="274.44504"
           x="6.6100464"
           id="tspan841"
           sodipodi:role="line">2</tspan></text>
      <rect
         style="opacity:1;fill:#999999;fill-opacity:1;stroke:none;stroke-width:0.5291667;stroke-linecap:square;stroke-linejoin:round;stroke-miterlimit:4;stroke-dasharray:none;stroke-opacity:1"
         id="rect853"
         width="4.8191986"
         height="4.8192167"
         x="10.819568"
         y="277.39249"
         ry="1.2048181" />
      <text
         xml:space="preserve"
         style="font-style:normal;font-variant:normal;font-weight:500;font-stretch:normal;font-size:3.62923px;line-height:1.25;font-family:Ubuntu;-inkscape-font-specification:'Ubuntu Medium';letter-spacing:0px;word-spacing:0px;fill:#ffffff;fill-opacity:1;stroke:none;stroke-width:0.264583"
         x="13.22463"
         y="281.05963"
         id="text857"><tspan
           sodipodi:role="line"
           id="tspan855"
           x="13.22463"
           y="281.05963"
           style="font-style:normal;font-variant:normal;font-weight:500;font-stretch:normal;font-family:Ubuntu;-inkscape-font-specification:'Ubuntu Medium';text-align:center;text-anchor:middle;fill:#ffffff;stroke-width:0.264583">W</tspan></text>
      <rect
         ry="1.2048181"
         y="282.68414"
         x="10.819568"
         height="4.8192167"
         width="4.8191986"
         id="rect859"
         style="opacity:1;fill:#999999;fill-opacity:1;stroke:none;stroke-width:0.5291667;stroke-linecap:square;stroke-linejoin:round;stroke-miterlimit:4;stroke-dasharray:none;stroke-opacity:1" />
      <text
         id="text863"
         y="286.35129"
         x="13.22463"
         style="font-style:normal;font-variant:normal;font-weight:500;font-stretch:normal;font-size:3.62923px;line-height:1.25;font-family:Ubuntu;-inkscape-font-specification:'Ubuntu Medium';letter-spacing:0px;word-spacing:0px;fill:#ffffff;fill-opacity:1;stroke:none;stroke-width:0.264583"
         xml:space="preserve"><tspan
           style="font-style:normal;font-variant:normal;font-weight:500;font-stretch:normal;font-family:Ubuntu;-inkscape-font-specification:'Ubuntu Medium';text-align:center;text-anchor:middle;fill:#ffffff;stroke-width:0.264583"
           y="286.35129"
           x="13.22463"
           id="tspan861"
           sodipodi:role="line">S</tspan></text>
      <rect
         style="opacity:1;fill:#999999;fill-opacity:1;stroke:none;stroke-width:0.5291667;stroke-linecap:square;stroke-linejoin:round;stroke-miterlimit:4;stroke-dasharray:none;stroke-opacity:1"
         id="rect865"
         width="4.8191986"
         height="4.8192167"
         x="5.5279002"
         y="282.68414"
         ry="1.2048181" />
      <text
         xml:space="preserve"
         style="font-style:normal;font-variant:normal;font-weight:500;font-stretch:normal;font-size:3.62923px;line-height:1.25;font-family:Ubuntu;-inkscape-font-specification:'Ubuntu Medium';letter-spacing:0px;word-spacing:0px;fill:#ffffff;fill-opacity:1;stroke:none;stroke-width:0.264583"
         x="7.9329629"
         y="286.35129"
         id="text869"><tspan
           sodipodi:role="line"
           id="tspan867"
           x="7.9329629"
           y="286.35129"
           style="font-style:normal;font-variant:normal;font-weight:500;font-stretch:normal;font-family:Ubuntu;-inkscape-font-specification:'Ubuntu Medium';text-align:center;text-anchor:middle;fill:#ffffff;stroke-width:0.264583">A</tspan></text>
      <rect
         ry="1.2048181"
         y="282.68414"
         x="16.111235"
         height="4.8192167"
         width="4.8191986"
         id="rect871"
         style="opacity:1;fill:#999999;fill-opacity:1;stroke:none;stroke-width:0.5291667;stroke-linecap:square;stroke-linejoin:round;stroke-miterlimit:4;stroke-dasharray:none;stroke-opacity:1" />
      <text
         id="text875"
         y="286.35129"
         x="18.516298"
         style="font-style:normal;font-variant:normal;font-weight:500;font-stretch:normal;font-size:3.62923px;line-height:1.25;font-family:Ubuntu;-inkscape-font-specification:'Ubuntu Medium';letter-spacing:0px;word-spacing:0px;fill:#ffffff;fill-opacity:1;stroke:none;stroke-width:0.264583"
         xml:space="preserve"><tspan
           style="font-style:normal;font-variant:normal;font-weight:500;font-stretch:normal;font-family:Ubuntu;-inkscape-font-specification:'Ubuntu Medium';text-align:center;text-anchor:middle;fill:#ffffff;stroke-width:0.264583"
           y="286.35129"
           x="18.516298"
           id="tspan873"
           sodipodi:role="line">D</tspan></text>
      <text
         xml:space="preserve"
         style="font-style:normal;font-variant:normal;font-weight:500;font-stretch:normal;font-size:2.71442px;line-height:1.25;font-family:Ubuntu;-inkscape-font-specification:'Ubuntu Medium';letter-spacing:0px;word-spacing:0px;fill:#ffffff;fill-opacity:1;stroke:none;stroke-width:0.264583"
         x="10.583371"
         y="273.84793"
         id="text909"><tspan
           sodipodi:role="line"
           id="tspan907"
           x="10.583371"
           y="273.84793"
           style="font-style:normal;font-variant:normal;font-weight:500;font-stretch:normal;font-family:Ubuntu;-inkscape-font-specification:'Ubuntu Medium';text-align:start;text-anchor:start;fill:#ffffff;stroke-width:0.264583">Jump</tspan></text>
      <text
         id="text913"
         y="290.8096"
         x="13.211384"
         style="font-style:normal;font-variant:normal;font-weight:500;font-stretch:normal;font-size:2.71442px;line-height:1.25;font-family:Ubuntu;-inkscape-font-specification:'Ubuntu Medium';letter-spacing:0px;word-spacing:0px;fill:#ffffff;fill-opacity:1;stroke:none;stroke-width:0.264583"
         xml:space="preserve"><tspan
           id="tspan915"
           style="font-style:normal;font-variant:normal;font-weight:500;font-stretch:normal;font-family:Ubuntu;-inkscape-font-specification:'Ubuntu Medium';text-align:center;text-anchor:middle;fill:#ffffff;stroke-width:0.264583"
           y="290.8096"
           x="13.211384"
           sodipodi:role="line">Move</tspan></text>
      <rect
         style="opacity:1;fill:#999999;fill-opacity:1;stroke:none;stroke-width:0.5291667;stroke-linecap:square;stroke-linejoin:round;stroke-miterlimit:4;stroke-dasharray:none;stroke-opacity:1"
         id="rect919"
         width="4.8191986"
         height="4.8192167"
         x="29.340401"
         y="270.77789"
         ry="1.2048181" />
      <text
         xml:space="preserve"
         style="font-style:normal;font-variant:normal;font-weight:500;font-stretch:normal;font-size:3.62923px;line-height:1.25;font-family:Ubuntu;-inkscape-font-specification:'Ubuntu Medium';letter-spacing:0px;word-spacing:0px;fill:#ffffff;fill-opacity:1;stroke:none;stroke-width:0.264583"
         x="31.745462"
         y="274.44504"
         id="text923"><tspan
           sodipodi:role="line"
           id="tspan921"
           x="31.745462"
           y="274.44504"
           style="font-style:normal;font-variant:normal;font-weight:500;font-stretch:normal;font-family:Ubuntu;-inkscape-font-specification:'Ubuntu Medium';text-align:center;text-anchor:middle;fill:#ffffff;stroke-width:0.264583">M</tspan></text>
      <rect
         ry="1.2048181"
         y="277.39249"
         x="35.954983"
         height="4.8192167"
         width="4.8191986"
         id="rect925"
         style="opacity:1;fill:#999999;fill-opacity:1;stroke:none;stroke-width:0.5291667;stroke-linecap:square;stroke-linejoin:round;stroke-miterlimit:4;stroke-dasharray:none;stroke-opacity:1" />
      <rect
         style="opacity:1;fill:#999999;fill-opacity:1;stroke:none;stroke-width:0.5291667;stroke-linecap:square;stroke-linejoin:round;stroke-miterlimit:4;stroke-dasharray:none;stroke-opacity:1"
         id="rect931"
         width="4.8191986"
         height="4.8192167"
         x="35.954983"
         y="282.68414"
         ry="1.2048181" />
      <rect
         ry="1.2048181"
         y="282.68414"
         x="30.663317"
         height="4.8192167"
         width="4.8191986"
         id="rect937"
         style="opacity:1;fill:#999999;fill-opacity:1;stroke:none;stroke-width:0.5291667;stroke-linecap:square;stroke-linejoin:round;stroke-miterlimit:4;stroke-dasharray:none;stroke-opacity:1" />
      <rect
         style="opacity:1;fill:#999999;fill-opacity:1;stroke:none;stroke-width:0.5291667;stroke-linecap:square;stroke-linejoin:round;stroke-miterlimit:4;stroke-dasharray:none;stroke-opacity:1"
         id="rect943"
         width="4.8191986"
         height="4.8192167"
         x="41.246651"
         y="282.68414"
         ry="1.2048181" />
      <text
         id="text951"
         y="273.84793"
         x="35.718788"
         style="font-style:normal;font-variant:normal;font-weight:500;font-stretch:normal;font-size:2.71442px;line-height:1.25;font-family:Ubuntu;-inkscape-font-specification:'Ubuntu Medium';letter-spacing:0px;word-spacing:0px;fill:#ffffff;fill-opacity:1;stroke:none;stroke-width:0.264583"
         xml:space="preserve"><tspan
           style="font-style:normal;font-variant:normal;font-weight:500;font-stretch:normal;font-family:Ubuntu;-inkscape-font-specification:'Ubuntu Medium';text-align:start;text-anchor:start;fill:#ffffff;stroke-width:0.264583"
           y="273.84793"
           x="35.718788"
           id="tspan949"
           sodipodi:role="line">Jump</tspan></text>
      <text
         xml:space="preserve"
         style="font-style:normal;font-variant:normal;font-weight:500;font-stretch:normal;font-size:2.71442px;line-height:1.25;font-family:Ubuntu;-inkscape-font-specification:'Ubuntu Medium';letter-spacing:0px;word-spacing:0px;fill:#ffffff;fill-opacity:1;stroke:none;stroke-width:0.264583"
         x="38.346802"
         y="290.8096"
         id="text955"><tspan
           sodipodi:role="line"
           x="38.346802"
           y="290.8096"
           style="font-style:normal;font-variant:normal;font-weight:500;font-stretch:normal;font-family:Ubuntu;-inkscape-font-specification:'Ubuntu Medium';text-align:center;text-anchor:middle;fill:#ffffff;stroke-width:0.264583"
           id="tspan953">Move</tspan></text>
      <path
         inkscape:connector-curvature="0"
         id="path1613"
         d="m 38.364582,278.53743 -0.827736,1.32338 h 1.655472 z m -0.330771,1.32365 v 1.32287 h 0.662512 v -1.32287 z"
         style="fill:#ffffff;stroke:#ffffff;stroke-width:0.26458332px;stroke-linecap:butt;stroke-linejoin:miter;stroke-opacity:1" />
      <path
         style="fill:#ffffff;stroke:#ffffff;stroke-width:0.26458332px;stroke-linecap:butt;stroke-linejoin:miter;stroke-opacity:1"
         d="m 38.364582,286.35842 -0.827736,-1.32338 h 1.655472 z m -0.330771,-1.32365 v -1.32287 h 0.662512 v 1.32287 z"
         id="path1621"
         inkscape:connector-curvature="0" />
      <path
         inkscape:connector-curvature="0"
         id="path1623"
         d="m 44.92092,285.03516 -1.32338,0.82774 v -1.65548 z m -1.32365,0.33077 H 42.2744 v -0.66251 h 1.32287 z"
         style="fill:#ffffff;stroke:#ffffff;stroke-width:0.26458332px;stroke-linecap:butt;stroke-linejoin:miter;stroke-opacity:1" />
      <path
         style="fill:#ffffff;stroke:#ffffff;stroke-width:0.26458332px;stroke-linecap:butt;stroke-linejoin:miter;stroke-opacity:1"
         d="m 31.808246,285.03516 1.32338,0.82774 v -1.65548 z m 1.32365,0.33077 h 1.32287 v -0.66251 h -1.32287 z"
         id="path1625"
         inkscape:connector-curvature="0" />
      <path
         inkscape:connector-curvature="0"
         id="path975"
         d="m -7.6540192,265.56973 -0.827736,-1.32338 h 1.655472 z m -0.330771,-1.32365 v -26.72287 h 0.662512 v 26.72287 z"
         style="fill:#ffffff;stroke:#ffffff;stroke-width:0.26458332px;stroke-linecap:butt;stroke-linejoin:miter;stroke-opacity:1"
         sodipodi:nodetypes="ccccccccc"
         inkscape:export-xdpi="299"
         inkscape:export-ydpi="299" />
    </g>
    <text
       id="text1651"
       y="281.69089"
       x="80.689178"
       style="font-style:normal;font-variant:normal;font-weight:500;font-stretch:normal;font-size:2.71442px;line-height:1.25;font-family:Ubuntu;-inkscape-font-specification:'Ubuntu Medium';letter-spacing:0px;word-spacing:0px;fill:#ffffff;fill-opacity:1;stroke:none;stroke-width:0.264583"
       xml:space="preserve"
       inkscape:export-xdpi="299.74536"
       inkscape:export-ydpi="299.74536"><tspan
         style="font-style:normal;font-variant:normal;font-weight:500;font-stretch:normal;font-family:Ubuntu;-inkscape-font-specification:'Ubuntu Medium';text-align:start;text-anchor:start;fill:#ffffff;stroke-width:0.264583"
         y="281.69089"
         x="80.689178"
         sodipodi:role="line"
         id="tspan943">Fire</tspan></text>
    <path
       id="rect958"
       style="fill:#000000;fill-opacity:1;stroke:none;stroke-width:3.99999;stroke-linecap:square"
       d="m 297.85547,1036.834 c -5.33986,-0.026 -5.37892,7.9838 -0.0391,8.0098 l -0.01,0 c 2.21652,0.01 4.01556,-1.7913 4.01367,-4.0078 -1.6e-4,-2.196 -1.76893,-3.9822 -3.96484,-4.0039 z m 8.67383,8.6738 c -5.41818,-0.1084 -5.46003,8.0607 -0.041,8.0078 l -0.01,0 c 2.21654,0.01 4.01646,-1.7894 4.01562,-4.0059 -1.6e-4,-2.196 -1.76893,-3.9822 -3.96484,-4.0039 z m -17.34571,0 c -5.41865,-0.1076 -5.4585,8.0625 -0.0391,8.0078 l -0.002,0 c 2.21269,8e-4 4.00664,-1.7931 4.00586,-4.0058 -1.7e-4,-2.196 -1.76894,-3.9822 -3.96485,-4.0039 z m 8.67188,8.6738 c -5.41865,-0.1076 -5.4585,8.0625 -0.0391,8.0078 l -0.01,0 c 2.21578,0.01 4.01451,-1.7901 4.01367,-4.0059 -1.6e-4,-2.196 -1.76893,-3.9822 -3.96484,-4.0039 z M 285,1063.6367 V 1065 h 3.28711 c -0.97839,-0.6974 -2.10234,-1.1635 -3.28711,-1.3633 z"
       sodipodi:nodetypes="cccccccccccccccccccccccc"
       transform="scale(0.26458333)"
       inkscape:export-xdpi="299"
       inkscape:export-ydpi="299" />
    <path
       style="fill:#ffffff;fill-opacity:1;stroke:#000000;stroke-width:0.529167;stroke-miterlimit:4;stroke-dasharray:none;stroke-opacity:1"
       d="m 78.766397,278.83759 c -1.496049,0.0565 -1.449208,2.28919 0.04789,2.28284 l -0.0028,5.6e-4 c 0.631791,10e-4 1.144671,-0.51044 1.144435,-1.14226 1.77e-4,-0.64947 -0.540661,-1.16831 -1.189546,-1.14114 z"
       id="path1653"
       inkscape:connector-curvature="0"
       sodipodi:nodetypes="cccccc"
       inkscape:export-xdpi="299.74536"
       inkscape:export-ydpi="299.74536" />
    <path
       sodipodi:nodetypes="cccccc"
       inkscape:connector-curvature="0"
       id="path1662"
       d="m 66.397394,281.36612 c -2.733325,0.10324 -2.647745,4.18303 0.0875,4.17142 l -0.0051,8.7e-4 c 1.154301,0.002 2.091348,-0.93272 2.090916,-2.08724 3.24e-4,-1.18677 -0.987803,-2.13484 -2.173335,-2.0852 z"
       style="fill:#ffffff;fill-opacity:1;stroke:#000000;stroke-width:0.529167;stroke-miterlimit:4;stroke-dasharray:none;stroke-opacity:1"
       inkscape:export-xdpi="299.74536"
       inkscape:export-ydpi="299.74536" />
    <text
       xml:space="preserve"
       style="font-style:normal;font-variant:normal;font-weight:500;font-stretch:normal;font-size:2.71442px;line-height:1.25;font-family:Ubuntu;-inkscape-font-specification:'Ubuntu Medium';letter-spacing:0px;word-spacing:0px;fill:#ffffff;fill-opacity:1;stroke:none;stroke-width:0.264583"
       x="62.971546"
       y="288.49448"
       id="text1666"
       inkscape:export-xdpi="299.74536"
       inkscape:export-ydpi="299.74536"><tspan
         sodipodi:role="line"
         id="tspan1664"
         x="62.971546"
         y="288.49448"
         style="font-style:normal;font-variant:normal;font-weight:500;font-stretch:normal;font-family:Ubuntu;-inkscape-font-specification:'Ubuntu Medium';text-align:start;text-anchor:start;fill:#ffffff;stroke-width:0.264583">Move</tspan></text>
    <text
       xml:space="preserve"
       style="font-style:normal;font-variant:normal;font-weight:500;font-stretch:normal;font-size:2.71442px;line-height:1.25;font-family:Ubuntu;-inkscape-font-specification:'Ubuntu Medium';letter-spacing:0px;word-spacing:0px;fill:#ffffff;fill-opacity:1;stroke:none;stroke-width:0.264583"
       x="17.861492"
       y="267.64914"
       id="text1670"
       inkscape:export-xdpi="299.74536"
       inkscape:export-ydpi="299.74536"><tspan
         sodipodi:role="line"
         id="tspan1668"
         x="17.861492"
         y="267.64914"
         style="font-style:normal;font-variant:normal;font-weight:500;font-stretch:normal;font-family:Ubuntu;-inkscape-font-specification:'Ubuntu Medium';text-align:start;text-anchor:start;fill:#ffffff;stroke-width:0.264583">KEYBOARD</tspan></text>
    <path
       id="rect951"
       style="fill:#000000;fill-opacity:1;stroke:none;stroke-width:3.99999;stroke-linecap:square"
       d="M 236.28711 1040.3477 L 236.28711 1046.4941 L 230.14062 1046.4941 L 230.14062 1052.5371 L 236.28711 1052.5371 L 236.28711 1058.6836 L 242.33203 1058.6836 L 242.33008 1058.6797 L 242.33008 1052.5352 L 248.47656 1052.5352 L 248.47656 1046.4922 L 242.33008 1046.4922 L 242.33008 1040.3477 L 236.28711 1040.3477 z "
       transform="scale(0.26458333)"
       inkscape:export-xdpi="299"
       inkscape:export-ydpi="299" />
    <path
       id="path976"
       style="fill:#000000;fill-opacity:1;stroke:none;stroke-width:2;stroke-miterlimit:4;stroke-dasharray:none;stroke-opacity:1"
       d="M 283.62305 1063.5234 A 7.9371326 7.9371326 0 0 0 283.66797 1079.3984 L 283.66797 1079.4004 A 7.9371326 7.9371326 0 0 0 291.61328 1071.4648 A 7.9371326 7.9371326 0 0 0 283.62305 1063.5234 z "
       transform="scale(0.26458333)"
       inkscape:export-xdpi="299"
       inkscape:export-ydpi="299" />
    <path
       id="path1015"
       style="fill:#3f68ac;fill-opacity:0.301595;stroke:#3f68ac;stroke-width:1.50000002;stroke-linecap:butt;stroke-linejoin:round;stroke-miterlimit:4.30000019;stroke-dasharray:none;stroke-opacity:1"
       d="M 410.85742 1020 L 390.85742 1045 L 370.85742 1105 L 390.85742 1085 L 400.85742 1095 L 414.54688 1081.3105 C 414.68139 1081.2235 414.80466 1081.1327 414.94141 1081.0469 C 421.50663 1085.9 430.89737 1082.8653 433.38086 1075.0879 C 435.01373 1074.9469 436.65202 1074.877 438.29102 1074.8789 C 440.01686 1074.8789 441.6283 1074.9529 443.17383 1075.0859 C 445.66355 1082.8652 455.06189 1085.8936 461.625 1081.0312 C 461.89939 1081.204 462.15238 1081.3846 462.41797 1081.5605 L 475.85742 1095 L 485.85742 1085 L 505.85742 1105 L 485.85742 1045 L 465.85742 1020 L 440.85742 1045 L 435.85742 1045 L 410.85742 1020 z M 435.85742 1025 L 425.85742 1030 L 435.85742 1040 L 440.85742 1040 L 450.85742 1030 L 440.85742 1025 L 435.85742 1025 z M 468.71094 1036.832 C 470.90684 1036.854 472.67563 1038.64 472.67578 1040.8359 C 472.67778 1043.0505 470.88177 1044.8516 468.66797 1044.8438 C 463.33421 1044.8118 463.37511 1036.8075 468.71289 1036.834 L 468.71094 1036.832 z M 407.14453 1040.3477 L 413.1875 1040.3477 L 413.1875 1046.4922 L 419.33398 1046.4922 L 419.33398 1052.5352 L 413.1875 1052.5352 L 413.1875 1058.6797 L 407.14453 1058.6797 L 407.14453 1052.5332 L 400.99805 1052.5332 L 400.99805 1046.4902 L 407.14453 1046.4902 L 407.14453 1040.3477 z M 460.04102 1045.5059 C 462.23696 1045.5279 464.00567 1047.3137 464.00586 1049.5098 C 464.00662 1051.7218 462.21373 1053.5153 460.00195 1053.5156 L 460 1053.5156 C 454.58288 1053.5686 454.62305 1045.4001 460.04102 1045.5078 L 460.04102 1045.5059 z M 477.38477 1045.5059 C 479.58067 1045.5279 481.34942 1047.3138 481.34961 1049.5098 C 481.35044 1051.7243 479.55365 1053.5237 477.33984 1053.5156 C 471.92689 1053.5626 471.97059 1045.3994 477.38672 1045.5078 L 477.38477 1045.5059 z M 468.71094 1054.1797 C 470.90684 1054.2017 472.67563 1055.9876 472.67578 1058.1836 C 472.67661 1060.3974 470.88102 1062.1975 468.66797 1062.1895 C 463.25463 1062.2375 463.29635 1054.074 468.71289 1054.1816 L 468.71094 1054.1797 z M 421.80859 1063.4297 C 426.28934 1063.2421 430.02465 1066.8251 430.02344 1071.3105 C 430.02506 1075.6741 426.48189 1079.2087 422.11914 1079.2012 L 422.13867 1079.1973 C 411.80076 1079.2411 411.47794 1063.8218 421.80859 1063.4316 L 421.80859 1063.4297 z M 454.39453 1063.5215 L 454.39453 1063.5234 C 454.42323 1063.5232 454.45187 1063.5232 454.48047 1063.5234 C 455.24223 1063.5234 456.00066 1063.6242 456.73242 1063.8359 C 457.0156 1063.9179 457.29403 1064.0146 457.56641 1064.127 L 457.57812 1064.127 C 457.58312 1064.127 457.58855 1064.1367 457.59375 1064.1367 C 457.86429 1064.2496 458.12837 1064.3774 458.38477 1064.5195 C 458.64338 1064.6629 458.89377 1064.8208 459.13477 1064.9922 L 459.14453 1065.002 C 461.23304 1066.4926 462.47211 1068.9009 462.4707 1071.4668 C 462.46986 1075.853 458.91154 1079.4068 454.52539 1079.4023 C 452.8145 1079.4023 451.14883 1078.8561 449.77539 1077.8359 L 449.77344 1077.8359 C 449.7659 1077.8271 449.75975 1077.8231 449.75195 1077.8164 C 449.51062 1077.6357 449.27978 1077.4414 449.06055 1077.2344 C 449.05655 1077.2344 449.05156 1077.2247 449.04688 1077.2227 C 448.82671 1077.0141 448.61869 1076.793 448.42383 1076.5605 C 448.41783 1076.5505 448.41225 1076.5461 448.40625 1076.5391 C 448.22498 1076.3217 448.05547 1076.0949 447.89844 1075.8594 C 447.87574 1075.8254 447.85423 1075.7904 447.83203 1075.7559 C 447.68146 1075.5224 447.54325 1075.2812 447.41797 1075.0332 C 447.41197 1075.0222 447.40599 1075.011 447.40039 1075 L 447.39648 1074.9902 C 447.26792 1074.7291 447.15382 1074.4611 447.05469 1074.1875 C 447.04869 1074.1715 447.04106 1074.1557 447.03516 1074.1387 C 447.03316 1074.1287 447.0313 1074.129 447.0293 1074.123 C 446.9349 1073.8579 446.85475 1073.5881 446.78906 1073.3145 C 446.78306 1073.2895 446.77728 1073.2642 446.77148 1073.2402 C 446.70768 1072.9631 446.65875 1072.6828 446.625 1072.4004 C 446.621 1072.3694 446.61923 1072.3396 446.61523 1072.3086 C 446.58603 1072.0355 446.57101 1071.761 446.57031 1071.4863 C 446.57022 1071.4623 446.56641 1071.4381 446.56641 1071.4141 L 446.57031 1071.4238 C 446.58901 1067.0976 450.06871 1063.5832 454.39453 1063.5215 z "
       transform="scale(0.26458333)"
       inkscape:export-xdpi="299"
       inkscape:export-ydpi="299" />
    <path
       transform="scale(0.26458333)"
       d="M 261.26758 875.75391 C 252.09228 875.52967 244.03125 879.84374 242 890 C 240.31365 897.7619 245.00097 900.00011 249.28906 907.26172 C 244.4357 913.82706 247.47037 923.21791 255.24805 925.70117 C 255.38948 927.33393 257.45847 928.97245 257.45703 930.61133 C 257.45703 932.33717 255.38342 933.94862 255.25 935.49414 C 247.47083 937.98409 244.44222 947.38239 249.30469 953.94531 C 242.84374 964.22037 231.83309 968.13228 233.52148 975.89648 C 236.55062 989.8748 295.81883 985.71859 301.29688 959.48047 C 304.33596 944.92982 279.89062 944.84465 279.89062 930.61719 C 279.89062 918.30787 296.21758 917.84605 293.29688 901.75195 C 290.46786 886.10458 274.67763 876.08164 261.26758 875.75391 z M 237.96875 890.18164 C 231.7649 894.09802 222.08738 902.34905 218.48438 917.26367 C 218.48438 929.48598 228.44502 918.47334 242.95312 913.97461 C 243.02002 911.65908 243.76638 909.32152 245.28906 907.26172 C 241.03591 900.05926 236.39872 897.79168 237.96875 890.18164 z M 292.55469 890.51367 C 294.86177 893.80923 296.54244 897.5792 297.29688 901.75195 C 298.58046 908.82504 296.14556 912.87711 293.01367 916.24414 C 304.20918 921.17291 311.51563 927.72272 311.51562 917.26367 C 308.01364 902.76714 298.7678 894.55988 292.55469 890.51367 z M 277.79688 893.31836 L 283.8418 893.31836 L 283.8418 899.46484 L 289.98828 899.46484 L 289.98828 905.50977 L 283.84375 905.50977 L 283.84375 911.6543 L 277.80078 911.6543 L 277.80078 905.50977 L 271.6543 905.50977 L 271.65234 905.50977 L 271.65234 899.4668 L 277.79688 899.4668 L 277.79688 893.31836 z M 259.12891 906.39453 C 261.01539 906.44188 262.9239 907.16997 264.48633 908.73242 C 269.48608 913.73232 265.94666 922.28317 258.875 922.2832 C 254.49153 922.28449 250.93695 918.73111 250.93555 914.34766 L 250.9375 914.3457 C 250.93763 909.48395 254.97865 906.29037 259.12891 906.39453 z M 259.13477 938.9043 C 261.021 938.95295 262.92898 939.68293 264.49023 941.24609 C 269.48624 946.24822 265.9417 954.79328 258.87109 954.79102 C 254.48474 954.7909 250.93146 951.23207 250.93555 946.8457 L 250.9375 946.84766 C 250.94192 941.98663 254.98505 938.79726 259.13477 938.9043 z M 280.94922 948.31055 C 281.90105 948.33436 282.86399 948.70188 283.65234 949.49023 C 286.17509 952.01296 284.38843 956.32678 280.82031 956.32617 C 278.60874 956.32617 276.8164 954.5319 276.81641 952.32031 L 276.81836 952.32227 C 276.81793 949.8692 278.85519 948.25816 280.94922 948.31055 z M 272.27734 956.98242 C 273.22911 957.00624 274.19214 957.37388 274.98047 958.16211 C 277.50312 960.68445 275.71622 964.99782 272.14844 964.99805 C 269.93547 964.99944 268.14466 963.20584 268.14453 960.99414 C 268.14438 958.54128 270.18346 956.93003 272.27734 956.98242 z M 289.625 956.98242 C 290.57678 957.00625 291.53981 957.37384 292.32812 958.16211 C 294.85075 960.68457 293.06393 964.99805 289.49609 964.99805 C 287.28321 964.99933 285.49231 963.20573 285.49219 960.99414 C 285.49203 958.54125 287.53109 956.92999 289.625 956.98242 z M 280.95312 965.65625 C 281.90489 965.68013 282.86797 966.04765 283.65625 966.83594 C 286.17874 969.35843 284.39201 973.67191 280.82422 973.67188 C 278.60768 973.67327 276.81077 971.87279 276.81641 969.65625 L 276.82031 969.66797 C 276.82032 967.21511 278.85925 965.60372 280.95312 965.65625 z "
       style="fill:#42a152;fill-opacity:1;stroke-width:1"
       id="path983" />
    <text
       inkscape:export-ydpi="299.74536"
       inkscape:export-xdpi="299.74536"
       xml:space="preserve"
       style="font-style:normal;font-variant:normal;font-weight:500;font-stretch:normal;font-size:2.71442px;line-height:1.25;font-family:Ubuntu;-inkscape-font-specification:'Ubuntu Medium';letter-spacing:0px;word-spacing:0px;fill:#ffffff;fill-opacity:1;stroke:none;stroke-width:0.264583"
       x="75.486145"
       y="260.11426"
       id="text987"><tspan
         id="tspan985"
         sodipodi:role="line"
         x="75.486145"
         y="260.11426"
         style="font-style:normal;font-variant:normal;font-weight:500;font-stretch:normal;font-family:Ubuntu;-inkscape-font-specification:'Ubuntu Medium';text-align:start;text-anchor:start;fill:#ffffff;stroke-width:0.264583">Fire spree</tspan></text>
    <path
       sodipodi:nodetypes="cccccccccccccccccccccccc"
       d="m 77.655656,254.27342 c 0.007,-1.41284 -2.11238,-1.42318 -2.11926,-0.0103 v -0.003 c -0.003,0.58645 0.47395,1.06245 1.0604,1.06195 0.58102,-5e-5 1.05362,-0.46803 1.05936,-1.04903 z m -2.29495,2.29495 c 0.0287,-1.43356 -2.13272,-1.44464 -2.11873,-0.0109 v -0.003 c -0.003,0.58646 0.47345,1.06269 1.0599,1.06246 0.58102,-4e-5 1.05362,-0.46803 1.05936,-1.04903 z m 0,-4.58939 c 0.0285,-1.43368 -2.1332,-1.44423 -2.11873,-0.0104 v -5.3e-4 c -2.1e-4,0.58544 0.47443,1.06009 1.05987,1.05989 0.58103,-5e-5 1.05363,-0.46804 1.05937,-1.04904 z m -2.29494,2.29444 c 0.0285,-1.43369 -2.1332,-1.44423 -2.11873,-0.0103 v -0.003 c -0.003,0.58625 0.47363,1.06217 1.0599,1.06195 0.58102,-5e-5 1.05362,-0.46803 1.05936,-1.04903 z m -2.50166,-3.40135 h -0.36071 v 0.86972 c 0.18452,-0.25887 0.30785,-0.55625 0.36071,-0.86972 z"
       style="fill:#000000;fill-opacity:1;stroke:none;stroke-width:1.05833;stroke-linecap:square"
       id="path989" />
    <path
       inkscape:export-ydpi="299.74536"
       inkscape:export-xdpi="299.74536"
       sodipodi:nodetypes="cccccc"
       inkscape:connector-curvature="0"
       id="path991"
       d="m 75.558615,256.60055 c -0.0565,-1.49605 -2.28919,-1.44921 -2.28284,0.0479 l -5.6e-4,-0.003 c -0.001,0.63179 0.51044,1.14467 1.14226,1.14444 0.64947,1.7e-4 1.16831,-0.54067 1.14114,-1.18955 z"
       style="fill:#ffffff;fill-opacity:1;stroke:#000000;stroke-width:0.529167;stroke-miterlimit:4;stroke-dasharray:none;stroke-opacity:1" />
    <text
       inkscape:export-ydpi="299.74536"
       inkscape:export-xdpi="299.74536"
       id="text997"
       y="251.06334"
       x="58.225643"
       style="font-style:normal;font-variant:normal;font-weight:500;font-stretch:normal;font-size:2.71442px;line-height:1.25;font-family:Ubuntu;-inkscape-font-specification:'Ubuntu Medium';letter-spacing:0px;word-spacing:0px;fill:#ffffff;fill-opacity:1;stroke:none;stroke-width:0.264583"
       xml:space="preserve"><tspan
         style="font-style:normal;font-variant:normal;font-weight:500;font-stretch:normal;font-family:Ubuntu;-inkscape-font-specification:'Ubuntu Medium';text-align:start;text-anchor:start;fill:#ffffff;stroke-width:0.264583"
         y="251.06334"
         x="58.225643"
         id="tspan995"
         sodipodi:role="line">Move</tspan></text>
    <path
       d="m 76.725986,237.98345 h -1.62623 v -1.62625 h -1.59888 v 1.62625 h -1.62626 v 1.59939 l 10e-4,-5.2e-4 h 1.62573 v 1.62626 h 1.59888 v -1.62626 h 1.62573 z"
       style="fill:#000000;fill-opacity:1;stroke:none;stroke-width:1.05833;stroke-linecap:square"
       id="path1003" />
    <path
       d="m 70.594086,250.50775 a 2.1001386,2.1001386 0 0 0 -4.20026,0.0119 h -5.3e-4 a 2.100033,2.100033 0 0 0 2.09963,2.1022 2.100033,2.100033 0 0 0 2.10116,-2.11408 z"
       style="fill:#000000;fill-opacity:1;stroke:none;stroke-width:0.529167;stroke-miterlimit:4;stroke-dasharray:none;stroke-opacity:1"
       id="path1005" />
    <text
       inkscape:export-ydpi="299.74536"
       inkscape:export-xdpi="299.74536"
       xml:space="preserve"
       style="font-style:normal;font-variant:normal;font-weight:500;font-stretch:normal;font-size:2.71442px;line-height:1.25;font-family:Ubuntu;-inkscape-font-specification:'Ubuntu Medium';letter-spacing:0px;word-spacing:0px;fill:#ffffff;fill-opacity:1;stroke:none;stroke-width:0.264583"
       x="125.89523"
       y="281.69089"
       id="text1019"><tspan
         id="tspan1017"
         sodipodi:role="line"
         x="125.89523"
         y="281.69089"
         style="font-style:normal;font-variant:normal;font-weight:500;font-stretch:normal;font-family:Ubuntu;-inkscape-font-specification:'Ubuntu Medium';text-align:start;text-anchor:start;fill:#ffffff;stroke-width:0.264583">Fire</tspan></text>
    <path
       inkscape:export-ydpi="299.74536"
       inkscape:export-xdpi="299.74536"
       sodipodi:nodetypes="cccccc"
       inkscape:connector-curvature="0"
       id="path1023"
       d="m 123.97245,278.83759 c -1.49605,0.0565 -1.44921,2.28919 0.0479,2.28284 l -0.003,5.6e-4 c 0.63179,10e-4 1.14467,-0.51044 1.14443,-1.14226 1.8e-4,-0.64947 -0.54066,-1.16831 -1.18954,-1.14114 z"
       style="fill:#ffffff;fill-opacity:1;stroke:#ffffff;stroke-width:0.26458333;stroke-miterlimit:4;stroke-dasharray:none;stroke-opacity:1" />
    <path
       inkscape:export-ydpi="299.74536"
       inkscape:export-xdpi="299.74536"
       style="fill:#ffffff;fill-opacity:1;stroke:#ffffff;stroke-width:0.26458333;stroke-miterlimit:4;stroke-dasharray:none;stroke-opacity:1"
       d="m 111.60344,281.36612 c -2.73332,0.10324 -2.64774,4.18303 0.0875,4.17142 l -0.005,8.7e-4 c 1.15431,0.002 2.09135,-0.93272 2.09092,-2.08724 3.2e-4,-1.18677 -0.9878,-2.13484 -2.17333,-2.0852 z"
       id="path1025"
       inkscape:connector-curvature="0"
       sodipodi:nodetypes="cccccc" />
    <text
       inkscape:export-ydpi="299.74536"
       inkscape:export-xdpi="299.74536"
       id="text1029"
       y="288.49448"
       x="108.1776"
       style="font-style:normal;font-variant:normal;font-weight:500;font-stretch:normal;font-size:2.71442px;line-height:1.25;font-family:Ubuntu;-inkscape-font-specification:'Ubuntu Medium';letter-spacing:0px;word-spacing:0px;fill:#ffffff;fill-opacity:1;stroke:none;stroke-width:0.264583"
       xml:space="preserve"><tspan
         style="font-style:normal;font-variant:normal;font-weight:500;font-stretch:normal;font-family:Ubuntu;-inkscape-font-specification:'Ubuntu Medium';text-align:start;text-anchor:start;fill:#ffffff;stroke-width:0.264583"
         y="288.49448"
         x="108.1776"
         id="tspan1027"
         sodipodi:role="line">Move</tspan></text>
    <path
       d="m 143.03238,277.96978 -1.99077,2.48851 -1.99081,5.97237 1.99081,-1.99079 0.99538,0.99538 1.36263,-1.36265 c 0.0126,-0.008 0.0257,-0.0168 0.0393,-0.0263 0.65349,0.48307 1.58825,0.18091 1.83545,-0.59316 0.16262,-0.0147 0.32561,-0.021 0.48875,-0.021 0.17188,0 0.3322,0.008 0.48604,0.021 0.24784,0.77435 1.18333,1.07579 1.83661,0.59179 0.0273,0.0168 0.0526,0.0351 0.0789,0.0526 l 1.33774,1.33776 0.99541,-0.99538 1.99079,1.99079 -1.99079,-5.97237 -1.99079,-2.48848 -2.48851,2.48848 h -0.49769 z m 2.48848,0.49772 -0.99538,0.49769 0.99538,0.99538 h 0.49769 l 0.99541,-0.99538 -0.99541,-0.49769 z m 3.27024,1.17773 c 0.21857,0.002 0.39463,0.18007 0.39465,0.39856 1.9e-4,0.22043 -0.1786,0.39973 -0.39894,0.39895 -0.53091,-0.002 -0.52685,-0.79993 0.004,-0.7973 z m -6.1283,0.34997 h 0.60151 v 0.61161 h 0.61182 v 0.60153 h -0.61182 v 0.6116 h -0.60151 v -0.61181 h -0.61182 v -0.60151 h 0.61182 z m 5.2653,0.51343 c 0.21857,0.002 0.39463,0.17986 0.39465,0.39854 7e-5,0.2202 -0.17839,0.39872 -0.39854,0.39876 h -2.1e-4 c -0.5392,0.004 -0.5352,-0.80782 0.004,-0.79711 z m 1.72638,0 c 0.21857,0.002 0.39463,0.17986 0.39465,0.39854 8e-5,0.22045 -0.17881,0.39956 -0.39914,0.39876 -0.53879,0.004 -0.53444,-0.80791 0.004,-0.79711 z m -0.86338,0.8634 c 0.21857,0.002 0.39463,0.17986 0.39465,0.39854 9e-5,0.22036 -0.1786,0.39953 -0.39894,0.39874 -0.53884,0.004 -0.53468,-0.8078 0.004,-0.79709 z m -4.66865,0.92072 c 0.446,-0.0189 0.81783,0.33798 0.81771,0.78447 1.7e-4,0.43435 -0.35252,0.78617 -0.78679,0.78543 l 0.002,-3.7e-4 c -1.02903,0.004 -1.06117,-1.53048 -0.0328,-1.56932 z m 3.24358,0.008 v 1.8e-4 c 0.002,-2e-5 0.006,-2e-5 0.008,0 0.0759,0 0.15125,0.0105 0.22417,0.0311 0.0282,0.008 0.056,0.0168 0.0831,0.029 h 0.001 c 3.8e-4,0 0.001,10e-4 0.002,10e-4 0.0269,0.0105 0.0532,0.024 0.0787,0.0381 0.0257,0.0147 0.0507,0.0301 0.0747,0.0471 l 10e-4,0.001 c 0.20784,0.14831 0.33123,0.38809 0.3311,0.6435 -9e-5,0.4366 -0.35428,0.79036 -0.79089,0.7899 -0.17039,0 -0.3361,-0.0543 -0.4728,-0.15589 h -2.1e-4 c -7.4e-4,-7.6e-4 -0.001,-10e-4 -0.002,-0.002 -0.024,-0.0189 -0.0469,-0.0372 -0.0688,-0.0579 -3.7e-4,0 -7.5e-4,-10e-4 -0.002,-10e-4 -0.0219,-0.021 -0.0427,-0.0427 -0.0621,-0.0658 -7.6e-4,-10e-4 -10e-4,-10e-4 -0.002,-0.002 -0.0189,-0.0217 -0.0349,-0.0442 -0.0505,-0.0677 -0.002,-0.004 -0.004,-0.006 -0.006,-0.0105 -0.0147,-0.0234 -0.0288,-0.0473 -0.0412,-0.072 -7.6e-4,-0.001 -0.001,-0.002 -0.002,-0.004 l -3.8e-4,-10e-4 c -0.0126,-0.0261 -0.0242,-0.0526 -0.0341,-0.0799 -7.5e-4,-0.002 -0.001,-0.002 -0.002,-0.004 -2.1e-4,-10e-4 -3.8e-4,-10e-4 -7.5e-4,-0.002 -0.008,-0.0263 -0.0168,-0.0532 -0.024,-0.0806 -7.3e-4,-0.002 -0.001,-0.004 -0.002,-0.008 -0.006,-0.0276 -0.0105,-0.0555 -0.0147,-0.0835 -3.7e-4,-0.002 -7.5e-4,-0.006 -0.001,-0.008 -0.002,-0.0271 -0.004,-0.0545 -0.004,-0.0818 -2e-5,-0.002 -3.8e-4,-0.004 -3.8e-4,-0.006 l 3.8e-4,0.001 c 0.002,-0.43063 0.34823,-0.78045 0.77881,-0.7866 z"
       style="fill:#3f68ac;fill-opacity:1;stroke:none;stroke-width:0.529166;stroke-linecap:butt;stroke-linejoin:round;stroke-miterlimit:4.3;stroke-dasharray:none;stroke-opacity:1"
       id="path1053"
       inkscape:export-xdpi="299"
       inkscape:export-ydpi="299" />
    <text
       id="text992"
       y="255.1498"
       x="78.737228"
       style="font-style:normal;font-variant:normal;font-weight:500;font-stretch:normal;font-size:2.71442px;line-height:1.25;font-family:Ubuntu;-inkscape-font-specification:'Ubuntu Medium';letter-spacing:0px;word-spacing:0px;fill:#ffffff;fill-opacity:1;stroke:none;stroke-width:0.264583"
       xml:space="preserve"
       inkscape:export-xdpi="299.74536"
       inkscape:export-ydpi="299.74536"><tspan
         style="font-style:normal;font-variant:normal;font-weight:500;font-stretch:normal;font-family:Ubuntu;-inkscape-font-specification:'Ubuntu Medium';text-align:start;text-anchor:start;fill:#ffffff;stroke-width:0.264583"
         y="255.1498"
         x="78.737228"
         sodipodi:role="line"
         id="tspan990">Fire missile</tspan></text>
    <path
       style="fill:#ffffff;fill-opacity:1;stroke:#000000;stroke-width:0.529167;stroke-miterlimit:4;stroke-dasharray:none;stroke-opacity:1"
       d="m 77.870363,254.15517 c -0.0565,-1.49605 -2.28919,-1.44921 -2.28284,0.0479 l -5.6e-4,-0.003 c -10e-4,0.63179 0.51044,1.14467 1.14226,1.14444 0.64947,1.7e-4 1.16831,-0.54067 1.14114,-1.18955 z"
       id="path994"
       inkscape:connector-curvature="0"
       sodipodi:nodetypes="cccccc"
       inkscape:export-xdpi="299.74536"
       inkscape:export-ydpi="299.74536" />
    <path
       inkscape:export-ydpi="299.74536"
       inkscape:export-xdpi="299.74536"
       style="fill:#ffffff;fill-opacity:1;stroke:#000000;stroke-width:0.529167;stroke-miterlimit:4;stroke-dasharray:none;stroke-opacity:1"
       d="m 70.618526,250.28239 c -0.10324,-2.73333 -4.18303,-2.64775 -4.17142,0.0875 l -8.7e-4,-0.005 c -0.002,1.1543 0.93272,2.09135 2.08724,2.09091 1.18677,3.3e-4 2.13484,-0.9878 2.0852,-2.17333 z"
       id="path993"
       inkscape:connector-curvature="0"
       sodipodi:nodetypes="cccccc" />
    <path
       id="path1006"
       style="fill:#000000;fill-opacity:1;stroke:none;stroke-width:1.05833;stroke-linecap:square"
       d="m 64.276343,197.62757 c -0.007,1.41284 2.11238,1.42318 2.11926,0.0103 v 0.003 c 0.003,-0.58645 -0.47395,-1.06245 -1.0604,-1.06195 -0.58102,5e-5 -1.05362,0.46803 -1.05936,1.04903 z m 2.29495,-2.29495 c -0.0287,1.43356 2.13272,1.44464 2.11873,0.0109 v 0.003 c 0.003,-0.58646 -0.47345,-1.06269 -1.0599,-1.06246 -0.58102,4e-5 -1.05362,0.46803 -1.05936,1.04903 z m 0,4.58939 c -0.0285,1.43368 2.1332,1.44423 2.11873,0.0104 v 5.3e-4 c 2.1e-4,-0.58544 -0.47443,-1.06009 -1.05987,-1.05989 -0.58103,5e-5 -1.05363,0.46804 -1.05937,1.04904 z m 2.29494,-2.29444 c -0.0285,1.43369 2.1332,1.44423 2.11873,0.0103 v 0.003 c 0.003,-0.58625 -0.47363,-1.06217 -1.0599,-1.06195 -0.58102,5e-5 -1.05362,0.46803 -1.05936,1.04903 z m 2.50166,3.40135 h 0.36071 v -0.86972 c -0.18452,0.25887 -0.30785,0.55625 -0.36071,0.86972 z"
       sodipodi:nodetypes="cccccccccccccccccccccccc" />
    <text
       xml:space="preserve"
       style="font-style:normal;font-variant:normal;font-weight:500;font-stretch:normal;font-size:2.71442px;line-height:1.25;font-family:Ubuntu;-inkscape-font-specification:'Ubuntu Medium';letter-spacing:0px;word-spacing:0px;fill:#ffffff;fill-opacity:1;stroke:none;stroke-width:0.264583"
       x="58.382244"
       y="217.16727"
       id="text1012"
       inkscape:export-xdpi="299.74536"
       inkscape:export-ydpi="299.74536"><tspan
         sodipodi:role="line"
         id="tspan1010"
         x="58.382244"
         y="217.16727"
         style="font-style:normal;font-variant:normal;font-weight:500;font-stretch:normal;font-family:Ubuntu;-inkscape-font-specification:'Ubuntu Medium';text-align:start;text-anchor:start;fill:#ffffff;stroke-width:0.264583">Move</tspan></text>
    <path
       id="path1014"
       style="fill:#ffffff;fill-opacity:1;stroke:#ffffff;stroke-width:0.264583;stroke-linecap:square;stroke-miterlimit:4;stroke-dasharray:none;stroke-opacity:1"
       d="m 65.206013,213.91754 h 1.62623 v 1.62625 h 1.59888 v -1.62625 h 1.62626 v -1.59939 l -0.001,5.2e-4 h -1.62573 v -1.62626 h -1.59888 v 1.62626 h -1.62573 z" />
    <path
       id="path1016"
       style="fill:#000000;fill-opacity:1;stroke:none;stroke-width:0.529167;stroke-miterlimit:4;stroke-dasharray:none;stroke-opacity:1"
       d="m 71.337913,200.86407 a 2.1001386,2.1001386 0 0 0 4.20026,-0.0119 h 5.3e-4 a 2.100033,2.100033 0 0 0 -2.09963,-2.1022 2.100033,2.100033 0 0 0 -2.10116,2.11408 z" />
    <text
       inkscape:export-ydpi="299.74536"
       inkscape:export-xdpi="299.74536"
       xml:space="preserve"
       style="font-style:normal;font-variant:normal;font-weight:500;font-stretch:normal;font-size:2.71442px;line-height:1.25;font-family:Ubuntu;-inkscape-font-specification:'Ubuntu Medium';letter-spacing:0px;word-spacing:0px;fill:#ffffff;fill-opacity:1;stroke:none;stroke-width:0.264583"
       x="76.091286"
       y="212.02843"
       id="text1020"><tspan
         id="tspan1018"
         sodipodi:role="line"
         x="76.091286"
         y="212.02843"
         style="font-style:normal;font-variant:normal;font-weight:500;font-stretch:normal;font-family:Ubuntu;-inkscape-font-specification:'Ubuntu Medium';text-align:start;text-anchor:start;fill:#ffffff;stroke-width:0.264583">Aim</tspan></text>
    <path
       sodipodi:nodetypes="cccccc"
       inkscape:connector-curvature="0"
       id="path1024"
       d="m 71.313473,209.72021 c 0.10324,2.73333 4.18303,2.64775 4.17142,-0.0875 l 8.7e-4,0.005 c 0.002,-1.1543 -0.93272,-2.09135 -2.08724,-2.09091 -1.18677,-3.3e-4 -2.13484,0.9878 -2.0852,2.17333 z"
       style="fill:#ffffff;fill-opacity:1;stroke:#ffffff;stroke-width:0.264583;stroke-miterlimit:4;stroke-dasharray:none;stroke-opacity:1"
       inkscape:export-xdpi="299.74536"
       inkscape:export-ydpi="299.74536" />
    <path
       inkscape:export-ydpi="299"
       inkscape:export-xdpi="299"
       d="m 147.20584,240.673 c -1.01191,-0.0247 -1.90092,0.45105 -2.12494,1.57115 -0.18599,0.85602 0.33096,1.10288 0.80388,1.90373 -0.53527,0.72408 -0.20058,1.75975 0.65719,2.03363 0.0156,0.18006 0.244,0.36077 0.24384,0.54151 0,0.19034 -0.2289,0.36806 -0.24362,0.53852 -0.85793,0.27459 -1.19174,1.3111 -0.65548,2.0349 -0.71255,1.1332 -1.92687,1.56463 -1.74067,2.42092 0.33408,1.54161 6.87055,1.08325 7.47471,-1.81046 0.33517,-1.60474 -2.36082,-1.61413 -2.36082,-3.18323 0,-1.35755 1.80064,-1.40848 1.47853,-3.18344 -0.31201,-1.72569 -2.05366,-2.83109 -3.53262,-2.86723 z m -2.56953,1.59119 c -0.68421,0.43191 -1.7515,1.34189 -2.14887,2.98677 0,1.34796 1.09853,0.13342 2.69857,-0.36273 0.007,-0.25537 0.0897,-0.51318 0.25762,-0.74035 -0.46906,-0.79433 -0.98047,-1.04442 -0.80732,-1.88369 z m 6.02008,0.0366 c 0.25444,0.36346 0.43979,0.77923 0.52299,1.23944 0.14157,0.78006 -0.12696,1.22695 -0.47237,1.59829 1.23472,0.54357 2.04051,1.26593 2.04051,0.11243 -0.38622,-1.59877 -1.40592,-2.50392 -2.09113,-2.95016 z m -1.62738,0.30932 h 0.66646 v 0.67788 h 0.67788 v 0.66667 h -0.67766 v 0.67765 h -0.66646 v -0.67765 h -0.67765 -2.2e-4 v -0.66645 h 0.67765 z m -2.05903,1.44212 c 0.20805,0.005 0.41875,0.0855 0.59106,0.25784 0.55141,0.55143 0.16085,1.49447 -0.61906,1.49447 -0.48344,1.4e-4 -0.87546,-0.39174 -0.87562,-0.87518 l 2.2e-4,-2.2e-4 c 1e-5,-0.53619 0.44568,-0.88839 0.9034,-0.87691 z m 8.3e-4,3.58539 c 0.20802,0.005 0.41845,0.0859 0.59064,0.25827 0.551,0.55167 0.16029,1.49407 -0.61949,1.49382 -0.48377,-1e-5 -0.87586,-0.3925 -0.87541,-0.87626 l 2.2e-4,2.2e-4 c 4.2e-4,-0.53611 0.44642,-0.88785 0.90404,-0.87605 z m 2.40606,1.03738 c 0.10497,0.002 0.21117,0.0431 0.29812,0.13011 0.27821,0.27822 0.0812,0.75397 -0.31234,0.75391 -0.24384,0 -0.44146,-0.19777 -0.44157,-0.44158 0,0 0,-2.2e-4 0,-2.2e-4 7e-5,-0.27041 0.2249,-0.44799 0.45579,-0.44222 z m -0.95661,0.9564 c 0.10497,0.002 0.21117,0.0432 0.29812,0.13009 0.27822,0.27819 0.0813,0.75389 -0.31211,0.75391 -0.24407,1.6e-4 -0.44179,-0.19765 -0.4418,-0.44157 -2e-5,-0.27052 0.22486,-0.44822 0.45579,-0.44243 z m 1.91321,0 c 0.10497,0.002 0.21118,0.0432 0.29812,0.13009 0.27821,0.2782 0.0814,0.75391 -0.31212,0.75391 -0.24443,1.5e-4 -0.4426,-0.19823 -0.44201,-0.44265 l 4.2e-4,10e-4 c -2e-5,-0.27052 0.22465,-0.44823 0.45558,-0.44245 z m -0.95639,0.9566 c 0.10497,0.002 0.21119,0.0431 0.29812,0.1301 0.2782,0.27819 0.0811,0.75392 -0.31234,0.75391 -0.244,1.6e-4 -0.44147,-0.19773 -0.44157,-0.44158 1e-5,-0.27051 0.22487,-0.44823 0.45579,-0.44243 z"
       style="fill:#42a152;fill-opacity:1;stroke-width:0.264583"
       id="path1036" />
    <path
       inkscape:export-ydpi="299"
       inkscape:export-xdpi="299"
       id="path1044"
       style="fill:#42a152;fill-opacity:0.30000001;stroke-width:0.396875;stroke:#42a152;stroke-opacity:1;stroke-miterlimit:4;stroke-dasharray:none"
       d="m 112.48983,231.70989 c -2.42764,-0.0593 -4.56045,1.0821 -5.09789,3.76927 -0.44618,2.05367 0.79401,2.64587 1.92857,4.56717 -1.28412,1.73708 -0.4812,4.22174 1.57665,4.87877 0.0374,0.432 0.58484,0.86552 0.58446,1.29914 0,0.45663 -0.54865,0.883 -0.58395,1.29191 -2.05823,0.6588 -2.85955,3.14544 -1.57303,4.88188 -1.70946,2.71861 -4.62269,3.75363 -4.17597,5.80791 0.80146,3.69843 16.48284,2.59877 17.93224,-4.3434 0.80409,-3.84986 -5.66374,-3.8724 -5.66374,-7.63674 0,-3.25685 4.31984,-3.37904 3.54707,-7.63727 -0.74851,-4.14003 -4.92634,-6.79193 -8.47441,-6.87864 z m -6.16449,3.81733 c -1.64143,1.03621 -4.20194,3.2193 -5.15524,7.16546 0,3.23382 2.63542,0.32005 6.47402,-0.87023 0.0177,-0.61265 0.21518,-1.23113 0.61806,-1.77612 -1.12532,-1.90565 -2.35224,-2.50562 -1.93684,-4.51911 z m 14.44253,0.0879 c 0.61042,0.87195 1.0551,1.86942 1.25471,2.97346 0.33961,1.87143 -0.30462,2.94354 -1.13327,3.8344 2.96215,1.30407 4.89531,3.03704 4.89531,0.26975 -0.92657,-3.83554 -3.37286,-6.00705 -5.01675,-7.07761 z m -3.90467,0.74208 h 1.59939 v 1.62625 h 1.62625 v 1.59939 h -1.62574 v 1.62574 h -1.59887 v -1.62574 h -1.62625 -5.2e-4 v -1.59887 h 1.62574 z m -4.93923,3.45973 c 0.49913,0.0125 1.00409,0.20517 1.41748,0.61857 1.32285,1.32289 0.38638,3.5853 -1.48466,3.58531 -1.15979,3.4e-4 -2.10028,-0.93982 -2.10065,-2.09961 l 5.2e-4,-5.2e-4 c 3e-5,-1.28634 1.06922,-2.13131 2.16731,-2.10375 z m 0.002,8.60155 c 0.49906,0.0129 1.00388,0.20601 1.41696,0.61959 1.32187,1.32349 0.38404,3.58437 -1.48673,3.58377 -1.16055,-3e-5 -2.10069,-0.94164 -2.09961,-2.1022 l 5.2e-4,5.2e-4 c 0.001,-1.28615 1.07091,-2.13 2.16886,-2.10168 z m 5.77174,2.48873 c 0.25184,0.006 0.50662,0.10354 0.7152,0.31213 0.66748,0.66747 0.19476,1.80883 -0.74931,1.80867 -0.58514,0 -1.05937,-0.47473 -1.05936,-1.05988 l 5.1e-4,5.2e-4 c -1.1e-4,-0.64904 0.53891,-1.0753 1.09296,-1.06144 z m -2.29444,2.29444 c 0.25183,0.006 0.50663,0.10357 0.71521,0.31212 0.66745,0.66737 0.19466,1.80862 -0.74931,1.80868 -0.58552,3.7e-4 -1.05933,-0.47419 -1.05937,-1.05937 -4e-5,-0.64899 0.53947,-1.0753 1.09347,-1.06143 z m 4.58991,0 c 0.25182,0.006 0.50662,0.10356 0.7152,0.31212 0.66744,0.6674 0.19468,1.80868 -0.74931,1.80868 -0.58549,3.4e-4 -1.05934,-0.47422 -1.05937,-1.05937 -4e-5,-0.64899 0.53946,-1.07531 1.09348,-1.06143 z m -2.29444,2.29495 c 0.25182,0.006 0.50664,0.10355 0.7152,0.31212 0.66741,0.66741 0.19467,1.80869 -0.7493,1.80868 -0.58646,3.7e-4 -1.0619,-0.47601 -1.0604,-1.06247 l 10e-4,0.003 c 0,-0.64899 0.53947,-1.07533 1.09347,-1.06143 z" />
    <text
       id="text1048"
       y="260.11426"
       x="118.84892"
       style="font-style:normal;font-variant:normal;font-weight:500;font-stretch:normal;font-size:2.71442px;line-height:1.25;font-family:Ubuntu;-inkscape-font-specification:'Ubuntu Medium';letter-spacing:0px;word-spacing:0px;fill:#ffffff;fill-opacity:1;stroke:none;stroke-width:0.264583"
       xml:space="preserve"
       inkscape:export-xdpi="299.74536"
       inkscape:export-ydpi="299.74536"><tspan
         style="font-style:normal;font-variant:normal;font-weight:500;font-stretch:normal;font-family:Ubuntu;-inkscape-font-specification:'Ubuntu Medium';text-align:start;text-anchor:start;fill:#ffffff;stroke-width:0.264583"
         y="260.11426"
         x="118.84892"
         sodipodi:role="line"
         id="tspan1046">Fire back</tspan></text>
    <path
       style="fill:#ffffff;fill-opacity:1;stroke:#ffffff;stroke-width:0.26458333;stroke-miterlimit:4;stroke-dasharray:none;stroke-opacity:1"
       d="m 118.92139,256.60055 c -0.0565,-1.49605 -2.28919,-1.44921 -2.28284,0.0479 l -5.6e-4,-0.003 c -0.001,0.63179 0.51044,1.14467 1.14226,1.14444 0.64947,1.7e-4 1.16831,-0.54067 1.14114,-1.18955 z"
       id="path1052"
       inkscape:connector-curvature="0"
       sodipodi:nodetypes="cccccc"
       inkscape:export-xdpi="299.74536"
       inkscape:export-ydpi="299.74536" />
    <text
       xml:space="preserve"
       style="font-style:normal;font-variant:normal;font-weight:500;font-stretch:normal;font-size:2.71442px;line-height:1.25;font-family:Ubuntu;-inkscape-font-specification:'Ubuntu Medium';letter-spacing:0px;word-spacing:0px;fill:#ffffff;fill-opacity:1;stroke:none;stroke-width:0.264583"
       x="101.58842"
       y="251.06334"
       id="text1056"
       inkscape:export-xdpi="299.74536"
       inkscape:export-ydpi="299.74536"><tspan
         sodipodi:role="line"
         id="tspan1054"
         x="101.58842"
         y="251.06334"
         style="font-style:normal;font-variant:normal;font-weight:500;font-stretch:normal;font-family:Ubuntu;-inkscape-font-specification:'Ubuntu Medium';text-align:start;text-anchor:start;fill:#ffffff;stroke-width:0.264583">Move</tspan></text>
    <path
       inkscape:export-ydpi="299"
       inkscape:export-xdpi="299"
       id="path1060"
       style="fill:#000000;fill-opacity:1;stroke:none;stroke-width:0.529167;stroke-miterlimit:4;stroke-dasharray:none;stroke-opacity:1"
       d="m 113.95686,250.50775 a 2.1001386,2.1001386 0 0 0 -4.20026,0.0119 h -5.3e-4 a 2.100033,2.100033 0 0 0 2.09963,2.1022 2.100033,2.100033 0 0 0 2.10116,-2.11408 z" />
    <text
       inkscape:export-ydpi="299.74536"
       inkscape:export-xdpi="299.74536"
       xml:space="preserve"
       style="font-style:normal;font-variant:normal;font-weight:500;font-stretch:normal;font-size:2.71442px;line-height:1.25;font-family:Ubuntu;-inkscape-font-specification:'Ubuntu Medium';letter-spacing:0px;word-spacing:0px;fill:#ffffff;fill-opacity:1;stroke:none;stroke-width:0.264583"
       x="122.10001"
       y="255.1498"
       id="text1064"><tspan
         id="tspan1062"
         sodipodi:role="line"
         x="122.10001"
         y="255.1498"
         style="font-style:normal;font-variant:normal;font-weight:500;font-stretch:normal;font-family:Ubuntu;-inkscape-font-specification:'Ubuntu Medium';text-align:start;text-anchor:start;fill:#ffffff;stroke-width:0.264583">Fire ahead</tspan></text>
    <path
       inkscape:export-ydpi="299.74536"
       inkscape:export-xdpi="299.74536"
       sodipodi:nodetypes="cccccc"
       inkscape:connector-curvature="0"
       id="path1066"
       d="m 121.23314,254.15517 c -0.0565,-1.49605 -2.28919,-1.44921 -2.28284,0.0479 l -5.6e-4,-0.003 c -0.001,0.63179 0.51044,1.14467 1.14226,1.14444 0.64947,1.7e-4 1.16831,-0.54067 1.14114,-1.18955 z"
       style="fill:#ffffff;fill-opacity:1;stroke:#ffffff;stroke-width:0.26458333;stroke-miterlimit:4;stroke-dasharray:none;stroke-opacity:1" />
    <path
       sodipodi:nodetypes="cccccc"
       inkscape:connector-curvature="0"
       id="path1068"
       d="m 113.9813,250.47138 c -0.10324,-2.73333 -4.18303,-2.64775 -4.17142,0.0875 l -8.7e-4,-0.005 c -0.002,1.1543 0.93272,2.09135 2.08724,2.09091 1.18677,3.3e-4 2.13484,-0.9878 2.0852,-2.17333 z"
       style="fill:#ffffff;fill-opacity:1;stroke:#ffffff;stroke-width:0.264583;stroke-miterlimit:4;stroke-dasharray:none;stroke-opacity:1"
       inkscape:export-xdpi="299.74536"
       inkscape:export-ydpi="299.74536" />
    <path
       sodipodi:nodetypes="cccccccccccccccccccccccc"
       d="m 62.683431,168.63707 c 1.41283,0.007 1.42318,-2.11238 0.0103,-2.11926 h 0.003 c -0.58645,-0.003 -1.06245,0.47395 -1.06195,1.0604 5e-5,0.58102 0.46803,1.05362 1.04903,1.05936 z m -2.29495,-2.29495 c 1.43356,0.0287 1.44463,-2.13272 0.0109,-2.11873 h 0.003 c -0.58646,-0.003 -1.06269,0.47345 -1.06246,1.0599 5e-5,0.58102 0.46803,1.05362 1.04903,1.05936 z m 4.58939,0 c 1.43368,0.0285 1.44423,-2.1332 0.0104,-2.11873 h 5.3e-4 c -0.58544,-2.1e-4 -1.06009,0.47443 -1.05989,1.05987 5e-5,0.58103 0.46804,1.05363 1.04904,1.05937 z m -2.29444,-2.29494 c 1.43369,0.0285 1.44423,-2.1332 0.0103,-2.11873 h 0.003 c -0.58625,-0.003 -1.06217,0.47363 -1.06195,1.0599 5e-5,0.58102 0.46803,1.05362 1.04903,1.05936 z m 3.40135,-2.50166 v -0.36071 h -0.86972 c 0.25887,0.18452 0.55625,0.30785 0.86972,0.36071 z"
       style="fill:#000000;fill-opacity:1;stroke:none;stroke-width:1.05833;stroke-linecap:square"
       id="path1076" />
    <path
       inkscape:export-ydpi="299.74536"
       inkscape:export-xdpi="299.74536"
       sodipodi:nodetypes="cccccc"
       inkscape:connector-curvature="0"
       id="path1078"
       d="m 60.356291,166.54003 c 1.49605,-0.0565 1.44921,-2.28919 -0.0479,-2.28284 l 0.003,-5.6e-4 c -0.63179,-0.001 -1.14467,0.51044 -1.14444,1.14226 -1.7e-4,0.64947 0.54067,1.16831 1.18955,1.14114 z"
       style="fill:#ffffff;fill-opacity:1;stroke:#ffffff;stroke-width:0.264583;stroke-miterlimit:4;stroke-dasharray:none;stroke-opacity:1" />
    <text
       inkscape:export-ydpi="299.74536"
       inkscape:export-xdpi="299.74536"
       id="text1082"
       y="166.43399"
       x="52.716797"
       style="font-style:normal;font-variant:normal;font-weight:500;font-stretch:normal;font-size:2.71442px;line-height:1.25;font-family:Ubuntu;-inkscape-font-specification:'Ubuntu Medium';letter-spacing:0px;word-spacing:0px;fill:#ffffff;fill-opacity:1;stroke:none;stroke-width:0.264583"
       xml:space="preserve"><tspan
         style="font-style:normal;font-variant:normal;font-weight:500;font-stretch:normal;font-family:Ubuntu;-inkscape-font-specification:'Ubuntu Medium';text-align:start;text-anchor:start;fill:#ffffff;stroke-width:0.264583"
         y="166.43399"
         x="52.716797"
         id="tspan1080"
         sodipodi:role="line">Left</tspan></text>
    <path
       d="m 78.973391,167.7074 v -1.62623 h 1.62625 v -1.59888 h -1.62625 v -1.62626 h -1.59939 l 5.2e-4,0.001 v 1.62573 h -1.62626 v 1.59888 h 1.62626 v 1.62573 z"
       style="fill:#000000;fill-opacity:1;stroke:none;stroke-width:1.05833;stroke-linecap:square"
       id="path1084" />
    <path
       d="m 66.449101,161.5755 a 2.1001386,2.1001386 0 0 0 -0.0119,-4.20026 v -5.3e-4 a 2.100033,2.100033 0 0 0 -2.10221,2.09963 2.100033,2.100033 0 0 0 2.11408,2.10116 z"
       style="fill:#000000;fill-opacity:1;stroke:none;stroke-width:0.529167;stroke-miterlimit:4;stroke-dasharray:none;stroke-opacity:1"
       id="path1086" />
    <path
       id="path1096"
       d="m 79.718266,110.82233 c 0.80409,-3.84986 -1.9596,-3.87273 -1.9596,-7.63708 0,-3.25684 2.73237,-3.37898 1.9596,-7.63721 -1.26065,-6.97269 -16.60161,-8.04466 -17.40557,-4.34563 -0.44618,2.05367 1.93538,3.08834 3.64478,5.80359 a 3.1535969,3.1535969 0 0 0 1.57674,4.87884 14.902858,14.902858 0 0 1 0.0556,1.29906 c 0,0.45663 -0.0196,0.88317 -0.0549,1.29209 a 3.1542697,3.1542697 0 0 0 -1.57288,4.8819 c -1.70946,2.71861 -4.09353,3.75328 -3.64681,5.80756 0.80146,3.69843 15.95361,2.59911 17.40301,-4.34306 z m -7.8435,-14.27993 v -1.599 h 1.62585 v -1.62664 h 1.59894 v 1.62652 h 1.62646 v 1.599 h -1.62579 v 1.62579 h -1.599 v -1.62579 h -1.62579 z m -5.48097,2.33777 a 2.100033,2.100033 0 1 1 2.10004,2.10009 2.100033,2.100033 0 0 1 -2.10065,-2.09936 z m 0,8.59939 a 2.100033,2.100033 0 1 1 2.09936,2.10193 2.100033,2.100033 0 0 1 -2.09997,-2.10199 z m 6.84749,1.44861 a 1.0594965,1.0594965 0 1 1 1.05932,1.05931 1.0594965,1.0594965 0 0 1 -1.0595,-1.0595 z m -2.29477,2.29465 a 1.0594965,1.0594965 0 1 1 1.05956,1.05943 1.0594965,1.0594965 0 0 1 -1.06017,-1.06206 z m 4.59003,0 a 1.0594965,1.0594965 0 1 1 1.0595,1.05943 1.0594965,1.0594965 0 0 1 -1.06011,-1.06206 z m -2.29464,2.29464 a 1.0594965,1.0594965 0 1 1 1.05949,1.0595 1.0594965,1.0594965 0 0 1 -1.06017,-1.06219 z"
       inkscape:connector-curvature="0"
       style="fill:#3f68ac;fill-opacity:1;stroke-width:0.264584" />
    <text
       id="text1100"
       y="117.07396"
       x="75.486145"
       style="font-style:normal;font-variant:normal;font-weight:500;font-stretch:normal;font-size:2.71442px;line-height:1.25;font-family:Ubuntu;-inkscape-font-specification:'Ubuntu Medium';letter-spacing:0px;word-spacing:0px;fill:#ffffff;fill-opacity:1;stroke:none;stroke-width:0.264583"
       xml:space="preserve"
       inkscape:export-xdpi="299.74536"
       inkscape:export-ydpi="299.74536"><tspan
         style="font-style:normal;font-variant:normal;font-weight:500;font-stretch:normal;font-family:Ubuntu;-inkscape-font-specification:'Ubuntu Medium';text-align:start;text-anchor:start;fill:#ffffff;stroke-width:0.264583"
         y="117.07396"
         x="75.486145"
         sodipodi:role="line"
         id="tspan1098">Fire spree</tspan></text>
    <path
       id="path1102"
       style="fill:#000000;fill-opacity:1;stroke:none;stroke-width:1.05833;stroke-linecap:square"
       d="m 77.655656,111.23312 c 0.007,-1.41284 -2.11238,-1.42318 -2.11926,-0.0103 v -0.003 c -0.003,0.58645 0.47395,1.06245 1.0604,1.06195 0.58102,-5e-5 1.05362,-0.46803 1.05936,-1.04903 z m -2.29495,2.29495 c 0.0287,-1.43356 -2.13272,-1.44464 -2.11873,-0.0109 v -0.003 c -0.003,0.58646 0.47345,1.06269 1.0599,1.06246 0.58102,-4e-5 1.05362,-0.46803 1.05936,-1.04903 z m 0,-4.58939 c 0.0285,-1.43368 -2.1332,-1.44423 -2.11873,-0.0104 v -5.3e-4 c -2.1e-4,0.58544 0.47443,1.06009 1.05987,1.05989 0.58103,-5e-5 1.05363,-0.46804 1.05937,-1.04904 z m -2.29494,2.29444 c 0.0285,-1.43369 -2.1332,-1.44423 -2.11873,-0.0103 v -0.003 c -0.003,0.58625 0.47363,1.06217 1.0599,1.06195 0.58102,-5e-5 1.05362,-0.46803 1.05936,-1.04903 z m -2.50166,-3.40135 h -0.36071 v 0.86972 c 0.18452,-0.25887 0.30785,-0.55625 0.36071,-0.86972 z"
       sodipodi:nodetypes="cccccccccccccccccccccccc" />
    <path
       style="fill:#ffffff;fill-opacity:1;stroke:#000000;stroke-width:0.529167;stroke-miterlimit:4;stroke-dasharray:none;stroke-opacity:1"
       d="m 75.558615,113.56025 c -0.0565,-1.49605 -2.28919,-1.44921 -2.28284,0.0479 l -5.6e-4,-0.003 c -0.001,0.63179 0.51044,1.14467 1.14226,1.14444 0.64947,1.7e-4 1.16831,-0.54067 1.14114,-1.18955 z"
       id="path1104"
       inkscape:connector-curvature="0"
       sodipodi:nodetypes="cccccc"
       inkscape:export-xdpi="299.74536"
       inkscape:export-ydpi="299.74536" />
    <text
       xml:space="preserve"
       style="font-style:normal;font-variant:normal;font-weight:500;font-stretch:normal;font-size:2.71442px;line-height:1.25;font-family:Ubuntu;-inkscape-font-specification:'Ubuntu Medium';letter-spacing:0px;word-spacing:0px;fill:#ffffff;fill-opacity:1;stroke:none;stroke-width:0.264583"
       x="58.225643"
       y="108.02304"
       id="text1108"
       inkscape:export-xdpi="299.74536"
       inkscape:export-ydpi="299.74536"><tspan
         sodipodi:role="line"
         id="tspan1106"
         x="58.225643"
         y="108.02304"
         style="font-style:normal;font-variant:normal;font-weight:500;font-stretch:normal;font-family:Ubuntu;-inkscape-font-specification:'Ubuntu Medium';text-align:start;text-anchor:start;fill:#ffffff;stroke-width:0.264583">Move</tspan></text>
    <path
       id="path1110"
       style="fill:#000000;fill-opacity:1;stroke:none;stroke-width:1.05833;stroke-linecap:square"
       d="m 76.725986,94.94315 h -1.62623 V 93.3169 h -1.59888 v 1.62625 h -1.62626 v 1.59939 l 10e-4,-5.2e-4 h 1.62573 v 1.62626 h 1.59888 v -1.62626 h 1.62573 z" />
    <path
       id="path1112"
       style="fill:#000000;fill-opacity:1;stroke:none;stroke-width:0.529167;stroke-miterlimit:4;stroke-dasharray:none;stroke-opacity:1"
       d="m 70.594086,107.46745 a 2.1001386,2.1001386 0 0 0 -4.20026,0.0119 h -5.3e-4 a 2.100033,2.100033 0 0 0 2.09963,2.1022 2.100033,2.100033 0 0 0 2.10116,-2.11408 z" />
    <text
       inkscape:export-ydpi="299.74536"
       inkscape:export-xdpi="299.74536"
       xml:space="preserve"
       style="font-style:normal;font-variant:normal;font-weight:500;font-stretch:normal;font-size:2.71442px;line-height:1.25;font-family:Ubuntu;-inkscape-font-specification:'Ubuntu Medium';letter-spacing:0px;word-spacing:0px;fill:#ffffff;fill-opacity:1;stroke:none;stroke-width:0.264583"
       x="78.737228"
       y="112.1095"
       id="text1116"><tspan
         id="tspan1114"
         sodipodi:role="line"
         x="78.737228"
         y="112.1095"
         style="font-style:normal;font-variant:normal;font-weight:500;font-stretch:normal;font-family:Ubuntu;-inkscape-font-specification:'Ubuntu Medium';text-align:start;text-anchor:start;fill:#ffffff;stroke-width:0.264583">Fire missile</tspan></text>
    <path
       inkscape:export-ydpi="299.74536"
       inkscape:export-xdpi="299.74536"
       sodipodi:nodetypes="cccccc"
       inkscape:connector-curvature="0"
       id="path1118"
       d="m 77.870363,111.11487 c -0.0565,-1.49605 -2.28919,-1.44921 -2.28284,0.0479 l -5.6e-4,-0.003 c -10e-4,0.63179 0.51044,1.14467 1.14226,1.14444 0.64947,1.7e-4 1.16831,-0.54067 1.14114,-1.18955 z"
       style="fill:#ffffff;fill-opacity:1;stroke:#000000;stroke-width:0.529167;stroke-miterlimit:4;stroke-dasharray:none;stroke-opacity:1" />
    <path
       sodipodi:nodetypes="cccccc"
       inkscape:connector-curvature="0"
       id="path1120"
       d="m 70.618526,107.24209 c -0.10324,-2.73333 -4.18303,-2.64775 -4.17142,0.0875 l -8.7e-4,-0.005 c -0.002,1.1543 0.93272,2.09135 2.08724,2.09091 1.18677,3.3e-4 2.13484,-0.9878 2.0852,-2.17333 z"
       style="fill:#ffffff;fill-opacity:1;stroke:#000000;stroke-width:0.529167;stroke-miterlimit:4;stroke-dasharray:none;stroke-opacity:1"
       inkscape:export-xdpi="299.74536"
       inkscape:export-ydpi="299.74536" />
    <path
       inkscape:export-ydpi="299"
       inkscape:export-xdpi="299"
       transform="scale(0.26458333)"
       d="M 410 720 L 405 725 L 435 725 L 430 720 L 410 720 z M 395 730 L 385 740 L 385 765 L 395 775 L 400 775 L 400 785 L 395 785 L 385 795 L 385 825 L 390 830 L 395 830 L 400 835 L 450 835 L 455 830 L 455 820 L 430 820 L 440 810 L 440 790 L 435 785 L 420 785 L 420 775 L 434.70312 775 L 440 770 L 440 755 L 430 745 L 455 745 L 455 740 L 444.2207 730 L 395 730 z M 405.60938 739.30273 C 407.82388 739.30187 409.62332 741.09869 409.61523 743.3125 L 409.61523 743.31836 C 409.65552 748.72474 401.49903 748.67966 401.60742 743.26562 L 401.60547 743.26758 C 401.62716 741.07167 403.41339 739.30289 405.60938 739.30273 z M 396.93555 747.97461 C 399.15006 747.97272 400.95144 749.76866 400.94336 751.98242 L 400.94336 751.98828 C 400.90709 757.31793 392.90715 757.27588 392.93359 751.93945 L 392.93164 751.93945 C 392.95334 749.74355 394.73957 747.9748 396.93555 747.97461 z M 414.2832 747.97461 C 416.4977 747.97378 418.29823 749.77045 418.28906 751.98438 L 418.28906 751.98828 C 418.33325 757.39746 410.1736 757.35467 410.28125 751.93945 L 410.2793 751.93945 C 410.30099 749.74355 412.08722 747.9748 414.2832 747.97461 z M 427.56445 756.18164 A 7.9371326 7.9371326 0 0 1 435.5 764.12695 L 435.49805 764.12695 A 7.9375317 7.9375317 0 0 1 419.62305 764.17188 A 7.9371326 7.9371326 0 0 1 427.56445 756.18164 z M 405.60938 756.64648 C 407.82139 756.64573 409.61496 758.43862 409.61523 760.65039 L 409.61523 760.65234 C 409.66782 766.06946 401.49972 766.02927 401.60742 760.61133 L 401.60547 760.61133 C 401.62716 758.41542 403.41336 756.64667 405.60938 756.64648 z "
       style="fill:#ac3f3f;fill-opacity:0.3;stroke:#ac3f3f;stroke-width:1.5;stroke-linecap:butt;stroke-linejoin:miter;stroke-miterlimit:4;stroke-dasharray:none;stroke-opacity:1"
       id="path1155" />
    <text
       inkscape:export-ydpi="299.74536"
       inkscape:export-xdpi="299.74536"
       id="text1161"
       y="218.4902"
       x="98.069756"
       style="font-style:normal;font-variant:normal;font-weight:500;font-stretch:normal;font-size:2.71442px;line-height:1.25;font-family:Ubuntu;-inkscape-font-specification:'Ubuntu Medium';letter-spacing:0px;word-spacing:0px;fill:#ffffff;fill-opacity:1;stroke:none;stroke-width:0.264583"
       xml:space="preserve"><tspan
         style="font-style:normal;font-variant:normal;font-weight:500;font-stretch:normal;font-family:Ubuntu;-inkscape-font-specification:'Ubuntu Medium';text-align:start;text-anchor:start;fill:#ffffff;stroke-width:0.264583"
         y="218.4902"
         x="98.069756"
         id="tspan1159"
         sodipodi:role="line">Move</tspan></text>
    <path
       inkscape:export-ydpi="299"
       inkscape:export-xdpi="299"
       d="m 139.5227,199.62353 -0.56116,0.56115 h 3.36696 l -0.56117,-0.56115 z m -1.68348,1.12232 -1.12231,1.12231 v 2.80579 l 1.12231,1.12232 h 0.56116 v 1.12232 h -0.56116 l -1.12231,1.12231 v 3.36695 l 0.56117,0.56116 h 0.56114 l 0.56116,0.56115 h 5.61159 l 0.56116,-0.56115 v -1.12232 h -2.8058 l 1.12232,-1.12231 v -2.24463 l -0.56115,-0.56116 h -1.68348 v -1.12232 h 1.65015 l 0.59448,-0.56115 v -1.68349 l -1.12232,-1.12231 h 2.8058 v -0.56116 l -1.20979,-1.12231 z m 1.19072,1.04406 c 0.24854,-9e-5 0.45049,0.20157 0.44958,0.45002 v 8.5e-4 c 0.004,0.60677 -0.91089,0.6017 -0.89874,-0.005 l -2.1e-4,2.3e-4 c 0.002,-0.24645 0.2029,-0.44498 0.44937,-0.44499 z m -0.97348,0.97326 c 0.24854,-2.2e-4 0.45071,0.20134 0.4498,0.4498 v 8.4e-4 c -0.004,0.59816 -0.90192,0.59344 -0.89894,-0.005 h -2.2e-4 c 0.002,-0.24645 0.20291,-0.44496 0.44936,-0.44498 z m 1.94695,0 c 0.24855,-1e-4 0.45062,0.20155 0.44959,0.45002 v 4.3e-4 c 0.005,0.60708 -0.9108,0.60227 -0.89873,-0.005 h -2.2e-4 c 0.002,-0.24644 0.20291,-0.44496 0.44936,-0.44498 z m 1.49058,0.92109 a 0.89079711,0.89079711 0 0 1 0.89061,0.89171 h -2.2e-4 a 0.89084196,0.89084196 0 0 1 -1.78167,0.005 0.89079711,0.89079711 0 0 1 0.89128,-0.89675 z m -2.46405,0.0521 c 0.24825,-8e-5 0.44956,0.20114 0.44958,0.44938 v 2e-4 c 0.005,0.60798 -0.91082,0.60347 -0.89874,-0.004 h -2.1e-4 c 0.002,-0.24644 0.2029,-0.44495 0.44937,-0.44499 z m 2.44695,3.67932 c 0.48973,-2e-4 0.8862,0.39725 0.88536,0.88688 l -4.2e-4,-0.002 c 0.005,1.16023 -1.72561,1.19647 -1.7694,0.0371 -0.021,-0.50289 0.38107,-0.92188 0.88447,-0.92174 z m -2.78562,1.33428 h 0.67821 v 0.68982 h 0.68961 l 4.3e-4,-2.1e-4 v 0.67843 h -0.68983 v 0.68983 h -0.67822 V 210.118 h -0.68982 v -0.67822 h 0.6896 z"
       style="fill:#ac3f3f;fill-opacity:1;stroke:none;stroke-width:0.396877;stroke-linecap:butt;stroke-linejoin:miter;stroke-miterlimit:4;stroke-dasharray:none;stroke-opacity:1"
       id="path1175" />
    <path
       inkscape:export-ydpi="299"
       inkscape:export-xdpi="299"
       d="m 104.89351,215.24046 h 1.62623 v 1.62625 h 1.59888 v -1.62625 h 1.62626 v -1.59939 l -10e-4,5.2e-4 h -1.62573 v -1.62626 h -1.59888 v 1.62626 h -1.62573 z"
       style="fill:#ffffff;fill-opacity:1;stroke:#ffffff;stroke-width:0.264583;stroke-linecap:square;stroke-miterlimit:4;stroke-dasharray:none;stroke-opacity:1"
       id="path1163" />
    <text
       id="text1169"
       y="213.35136"
       x="115.77879"
       style="font-style:normal;font-variant:normal;font-weight:500;font-stretch:normal;font-size:2.71442px;line-height:1.25;font-family:Ubuntu;-inkscape-font-specification:'Ubuntu Medium';letter-spacing:0px;word-spacing:0px;fill:#ffffff;fill-opacity:1;stroke:none;stroke-width:0.264583"
       xml:space="preserve"
       inkscape:export-xdpi="299.74536"
       inkscape:export-ydpi="299.74536"><tspan
         style="font-style:normal;font-variant:normal;font-weight:500;font-stretch:normal;font-family:Ubuntu;-inkscape-font-specification:'Ubuntu Medium';text-align:start;text-anchor:start;fill:#ffffff;stroke-width:0.264583"
         y="213.35136"
         x="115.77879"
         sodipodi:role="line"
         id="tspan1167">Aim</tspan></text>
    <path
       inkscape:export-ydpi="299.74536"
       inkscape:export-xdpi="299.74536"
       style="fill:#ffffff;fill-opacity:1;stroke:#ffffff;stroke-width:0.264583;stroke-miterlimit:4;stroke-dasharray:none;stroke-opacity:1"
       d="m 111.00097,211.04313 c 0.10324,2.73333 4.18303,2.64775 4.17142,-0.0875 l 8.7e-4,0.005 c 0.002,-1.1543 -0.93272,-2.09135 -2.08724,-2.09091 -1.18677,-3.3e-4 -2.13484,0.9878 -2.0852,2.17333 z"
       id="path1171"
       inkscape:connector-curvature="0"
       sodipodi:nodetypes="cccccc" />
    <text
       xml:space="preserve"
       style="font-style:normal;font-variant:normal;font-weight:500;font-stretch:normal;font-size:2.71442px;line-height:1.25;font-family:Ubuntu;-inkscape-font-specification:'Ubuntu Medium';letter-spacing:0px;word-spacing:0px;fill:#ffffff;fill-opacity:1;stroke:none;stroke-width:0.264583"
       x="81.585876"
       y="166.43399"
       id="text1214"
       inkscape:export-xdpi="299.74536"
       inkscape:export-ydpi="299.74536"><tspan
         sodipodi:role="line"
         id="tspan1212"
         x="81.585876"
         y="166.43399"
         style="font-style:normal;font-variant:normal;font-weight:500;font-stretch:normal;font-family:Ubuntu;-inkscape-font-specification:'Ubuntu Medium';text-align:start;text-anchor:start;fill:#ffffff;stroke-width:0.264583">Right</tspan></text>
    <rect
       y="164.61865"
       x="79.09314"
       height="1.3570167"
       width="1.5216715"
       id="rect1216"
       style="fill:#ffffff;fill-opacity:1;stroke:#ffffff;stroke-width:0.264583;stroke-linecap:butt;stroke-linejoin:miter;stroke-miterlimit:4;stroke-dasharray:none;stroke-opacity:1" />
    <path
       id="path1220"
       style="fill:#000000;fill-opacity:1;stroke:none;stroke-width:0.529167;stroke-miterlimit:4;stroke-dasharray:none;stroke-opacity:1"
       d="m 74.930471,161.5755 a 2.1001386,2.1001386 0 0 0 -0.0119,-4.20026 v -5.3e-4 a 2.100033,2.100033 0 0 0 -2.10221,2.09963 2.100033,2.100033 0 0 0 2.11408,2.10116 z" />
    <path
       inkscape:export-ydpi="299"
       inkscape:export-xdpi="299"
       transform="scale(0.26458333)"
       d="M 364.58594 569.94531 L 384.58594 629.94531 L 404.58594 654.94531 L 429.58594 629.94531 L 434.58594 629.94531 L 459.58594 654.94531 L 479.58594 629.94531 L 499.58594 569.94531 L 479.58594 589.94531 L 469.58594 599.94531 L 456.14648 593.38477 C 455.88078 593.56051 455.62791 593.74119 455.35352 593.91406 C 448.79044 589.05178 439.39207 592.08009 436.90234 599.85938 C 435.35682 599.99237 433.74538 600.06641 432.01953 600.06641 C 430.38058 600.06841 428.74224 599.9984 427.10938 599.85742 C 424.62592 592.07999 415.23515 589.04534 408.66992 593.89844 C 408.5331 593.81264 408.4099 593.72169 408.27539 593.63477 L 394.58594 599.94531 L 384.58594 589.94531 L 364.58594 569.94531 z M 432.19727 570.52539 L 417.05273 587.5918 C 421.35542 587.34726 423.624 587.45192 425.94531 591.30273 L 438.07031 591.30273 C 440.46657 587.3362 442.92891 587.22979 447.36328 587.63477 L 432.19727 570.52539 z M 415.83594 594.80273 L 415.83594 594.80469 A 7.9375317 7.9375317 0 0 1 415.88086 610.67969 A 7.9371322 7.9371322 0 0 1 407.89062 602.73828 A 7.9371322 7.9371322 0 0 1 415.83594 594.80273 z M 447.89258 594.80273 L 447.89258 594.80469 A 7.9375317 7.9375317 0 0 1 447.9375 610.67969 A 7.9371323 7.9371323 0 0 1 439.94727 602.73828 A 7.9371323 7.9371323 0 0 1 447.89258 594.80273 z M 401.69336 612.01367 L 401.69922 612.01367 C 407.10634 611.97155 407.06298 620.12912 401.64844 620.02148 L 401.65039 620.02344 C 399.45449 620.00174 397.68574 618.21551 397.68555 616.01953 C 397.68472 613.8057 399.48035 612.00559 401.69336 612.01367 z M 457.17188 615.51953 L 463.2168 615.51953 L 463.2168 621.66602 L 469.36328 621.66602 L 469.36328 627.70898 L 463.2168 627.70898 L 463.2168 633.85547 L 457.17383 633.85547 L 457.17383 627.71094 L 451.02734 627.71094 L 451.02734 621.66797 L 457.17383 621.66797 L 457.17383 615.52344 L 457.17188 615.51953 z M 393.02148 620.6875 L 393.02734 620.6875 C 398.43371 620.64719 398.38866 628.8037 392.97461 628.69531 L 392.97656 628.69727 C 390.78066 628.67557 389.01191 626.88934 389.01172 624.69336 C 389.01085 622.47884 390.80768 620.67942 393.02148 620.6875 z M 410.35938 620.6875 L 410.36133 620.6875 C 415.77845 620.63491 415.73826 628.80302 410.32031 628.69531 L 410.32031 628.69727 C 408.12441 628.67557 406.35566 626.88938 406.35547 624.69336 C 406.35471 622.48134 408.1476 620.68778 410.35938 620.6875 z M 401.69336 629.35938 C 407.02717 629.39151 406.98621 637.39559 401.64844 637.36914 L 401.65039 637.37109 C 399.45449 637.3494 397.68574 635.56317 397.68555 633.36719 C 397.68366 631.15267 399.47959 629.3513 401.69336 629.35938 z M 429.58594 634.94531 L 419.58594 644.94531 L 429.58594 641.94531 L 434.58594 641.94531 L 444.58594 644.94531 L 434.58594 634.94531 L 429.58594 634.94531 z M 386.19727 637.30273 L 376.19727 647.30273 L 391.19727 642.30273 L 386.19727 637.30273 z M 478.19727 637.30273 L 473.19727 642.30273 L 488.19727 647.30273 L 478.19727 637.30273 z "
       style="fill:#b59232;fill-opacity:0.3;stroke:#b59232;stroke-width:1.50000002;stroke-linecap:butt;stroke-linejoin:miter;stroke-miterlimit:4.5;stroke-dasharray:none;stroke-opacity:1"
       id="path1234" />
    <path
       style="fill:#ffffff;fill-opacity:1;stroke:#ffffff;stroke-width:0.264583;stroke-miterlimit:4;stroke-dasharray:none;stroke-opacity:1"
       d="m 104.00929,166.40639 c 1.49605,-0.0565 1.44921,-2.28919 -0.0479,-2.28284 l 0.003,-5.6e-4 c -0.63179,-10e-4 -1.14467,0.51044 -1.14444,1.14226 -1.7e-4,0.64947 0.54067,1.16831 1.18955,1.14114 z"
       id="path1238"
       inkscape:connector-curvature="0"
       sodipodi:nodetypes="cccccc"
       inkscape:export-xdpi="299.74536"
       inkscape:export-ydpi="299.74536" />
    <text
       xml:space="preserve"
       style="font-style:normal;font-variant:normal;font-weight:500;font-stretch:normal;font-size:2.71442px;line-height:1.25;font-family:Ubuntu;-inkscape-font-specification:'Ubuntu Medium';letter-spacing:0px;word-spacing:0px;fill:#ffffff;fill-opacity:1;stroke:none;stroke-width:0.264583"
       x="96.302979"
       y="166.43399"
       id="text1242"
       inkscape:export-xdpi="299.74536"
       inkscape:export-ydpi="299.74536"><tspan
         sodipodi:role="line"
         id="tspan1240"
         x="96.302979"
         y="166.43399"
         style="font-style:normal;font-variant:normal;font-weight:500;font-stretch:normal;font-family:Ubuntu;-inkscape-font-specification:'Ubuntu Medium';text-align:start;text-anchor:start;fill:#ffffff;stroke-width:0.264583">Left</tspan></text>
    <text
       inkscape:export-ydpi="299.74536"
       inkscape:export-xdpi="299.74536"
       id="text1250"
       y="166.43399"
       x="125.70123"
       style="font-style:normal;font-variant:normal;font-weight:500;font-stretch:normal;font-size:2.71442px;line-height:1.25;font-family:Ubuntu;-inkscape-font-specification:'Ubuntu Medium';letter-spacing:0px;word-spacing:0px;fill:#ffffff;fill-opacity:1;stroke:none;stroke-width:0.264583"
       xml:space="preserve"><tspan
         style="font-style:normal;font-variant:normal;font-weight:500;font-stretch:normal;font-family:Ubuntu;-inkscape-font-specification:'Ubuntu Medium';text-align:start;text-anchor:start;fill:#ffffff;stroke-width:0.264583"
         y="166.43399"
         x="125.70123"
         id="tspan1248"
         sodipodi:role="line">Right</tspan></text>
    <rect
       inkscape:export-ydpi="299"
       inkscape:export-xdpi="299"
       style="fill:#ffffff;fill-opacity:1;stroke:#ffffff;stroke-width:0.765;stroke-linecap:butt;stroke-linejoin:miter;stroke-miterlimit:4;stroke-dasharray:none;stroke-opacity:1"
       id="rect1252"
       width="1.5216715"
       height="1.3570167"
       x="122.71846"
       y="164.61865" />
    <path
       inkscape:export-ydpi="299"
       inkscape:export-xdpi="299"
       id="path1266"
       style="fill:#b59232;fill-opacity:1;stroke:none;stroke-width:0.396875;stroke-linecap:butt;stroke-linejoin:miter;stroke-miterlimit:4.5;stroke-dasharray:none;stroke-opacity:1"
       d="m 140.74111,162.24069 1.96431,5.89293 1.96431,2.45538 2.45539,-2.45538 h 0.49108 l 2.45538,2.45538 1.96431,-2.45538 1.96431,-5.89293 -1.96431,1.96431 -0.98215,0.98216 -1.31996,-0.64435 c -0.0262,0.0173 -0.0509,0.035 -0.0779,0.052 -0.6446,-0.47756 -1.56766,-0.18014 -1.81219,0.58392 -0.15179,0.013 -0.31006,0.0204 -0.47957,0.0204 -0.16097,2e-4 -0.32188,-0.007 -0.48225,-0.0206 -0.24391,-0.76386 -1.16624,-1.06191 -1.81104,-0.58527 -0.0134,-0.009 -0.0256,-0.0174 -0.0388,-0.026 l -1.34451,0.61979 -0.98216,-0.98216 z m 6.64048,0.057 -1.48743,1.67619 c 0.42259,-0.024 0.6454,-0.0137 0.87339,0.36448 h 1.19086 c 0.23535,-0.38958 0.4772,-0.40004 0.91272,-0.36026 z m -1.60693,2.38442 v 1.9e-4 a 0.77958901,0.77958901 0 0 1 0.005,1.55917 0.77954909,0.77954909 0 0 1 -0.78477,-0.77997 0.77954909,0.77954909 0 0 1 0.78035,-0.77939 z m 3.14846,0 v 1.9e-4 a 0.77958901,0.77958901 0 0 1 0.005,1.55917 0.77954909,0.77954909 0 0 1 -0.78476,-0.77997 0.77954909,0.77954909 0 0 1 0.78035,-0.77939 z m -4.53748,1.69037 h 7.4e-4 c 0.53106,-0.004 0.5268,0.79707 -0.005,0.7865 l 1.9e-4,1.9e-4 c -0.21567,-0.002 -0.38939,-0.17757 -0.38941,-0.39325 -9e-5,-0.21743 0.17627,-0.39423 0.39363,-0.39344 z m 5.44884,0.34433 h 0.5937 v 0.60369 h 0.60369 v 0.59351 h -0.60369 v 0.60367 h -0.5935 v -0.60348 h -0.60369 v -0.59352 h 0.60369 v -0.60348 z m -6.30056,0.50758 h 7.4e-4 c 0.531,-0.004 0.52657,0.79714 -0.005,0.78649 l 1.8e-4,1.9e-4 c -0.21567,-0.002 -0.38939,-0.17757 -0.38941,-0.39324 -7e-5,-0.21751 0.17639,-0.39424 0.39383,-0.39344 z m 1.70285,0 h 2e-4 c 0.53204,-0.005 0.5281,0.79707 -0.004,0.78649 v 1.9e-4 c -0.21567,-0.002 -0.38939,-0.17756 -0.38941,-0.39324 -7e-5,-0.21726 0.17602,-0.39342 0.39325,-0.39344 z m -0.85113,0.85171 c 0.52386,0.003 0.51984,0.78928 -0.005,0.78668 l 1.9e-4,2e-4 c -0.21567,-0.002 -0.38938,-0.17757 -0.3894,-0.39325 -2e-4,-0.2175 0.1762,-0.39442 0.39362,-0.39363 z m 2.73948,0.54862 -0.98216,0.98217 0.98216,-0.29465 h 0.49108 l 0.98214,0.29465 -0.98214,-0.98217 z m -4.26144,0.23154 -0.98216,0.98216 1.47323,-0.49108 z m 9.03582,0 -0.49107,0.49108 1.47323,0.49108 z" />
    <path
       inkscape:export-ydpi="299"
       inkscape:export-xdpi="299"
       id="path1268"
       d="m 144.34184,268.07834 1.33318,-1.33318 1.33319,1.33318 -1.33319,2.66637 z"
       style="fill:#ff6600;stroke:none;stroke-width:0.264583px;stroke-linecap:butt;stroke-linejoin:miter;stroke-opacity:1" />
    <rect
       inkscape:export-ydpi="40"
       inkscape:export-xdpi="40"
       transform="rotate(-45)"
       y="301.02634"
       x="-61.681633"
       height="2.8291204"
       width="2.8291204"
       id="rect1282"
       style="fill:#ff0101;fill-opacity:1;stroke:none;stroke-width:0.396875;stroke-linecap:butt;stroke-linejoin:miter;stroke-miterlimit:4.5;stroke-dasharray:none;stroke-opacity:1" />
    <rect
       inkscape:export-ydpi="40"
       inkscape:export-xdpi="40"
       transform="rotate(-45)"
       y="302.40298"
       x="-63.785381"
       height="3.5561981"
       width="3.5561981"
       id="rect1278"
       style="fill:#01ff34;fill-opacity:1;stroke:none;stroke-width:0.396875;stroke-linecap:butt;stroke-linejoin:miter;stroke-miterlimit:4.5;stroke-dasharray:none;stroke-opacity:1" />
    <rect
       inkscape:export-ydpi="40"
       inkscape:export-xdpi="40"
       transform="rotate(-45)"
       y="303.73624"
       x="-65.932533"
       height="4.3700905"
       width="4.3700905"
       id="rect1274"
       style="fill:#0109ff;fill-opacity:1;stroke:none;stroke-width:0.396875;stroke-linecap:butt;stroke-linejoin:miter;stroke-miterlimit:4.5;stroke-dasharray:none;stroke-opacity:1" />
    <rect
       inkscape:export-ydpi="40.615246"
       inkscape:export-xdpi="40.615246"
       transform="rotate(-45)"
       y="305.66779"
       x="-68.841064"
       height="5.3470402"
       width="5.3470402"
       id="rect1270"
       style="fill:#ffffff;fill-opacity:1;stroke:none;stroke-width:0.396875;stroke-linecap:butt;stroke-linejoin:miter;stroke-miterlimit:4.5;stroke-dasharray:none;stroke-opacity:1" />
    <rect
       inkscape:export-ydpi="40.615246"
       inkscape:export-xdpi="40.615246"
       transform="rotate(-45)"
       y="316.74402"
       x="-52.526367"
       height="3.7239239"
       width="3.7239239"
       id="rect1302"
       style="opacity:1;fill:#808080;fill-opacity:1;stroke:none;stroke-width:0.396875;stroke-linecap:butt;stroke-linejoin:miter;stroke-miterlimit:4.5;stroke-dasharray:none;stroke-opacity:1" />
    <rect
       inkscape:export-ydpi="40.615246"
       inkscape:export-xdpi="40.615246"
       style="fill:#ffffff;fill-opacity:1;stroke:none;stroke-width:0.396875;stroke-linecap:butt;stroke-linejoin:miter;stroke-miterlimit:4.5;stroke-dasharray:none;stroke-opacity:1"
       id="rect1306"
       width="5.3470402"
       height="5.3470402"
       x="-55.957157"
       y="318.5517"
       transform="rotate(-45)" />
    <path
       transform="matrix(1.2254989,0,0,1.320574,-32.849552,-85.857158)"
       style="fill:#ffb481;fill-opacity:1;stroke:none;stroke-width:0.207981px;stroke-linecap:butt;stroke-linejoin:miter;stroke-opacity:1;filter:url(#filter1663)"
       d="m 144.34184,268.07834 1.33318,-1.33318 1.33319,1.33318 -1.33319,2.66637 z"
       id="path1481"
       inkscape:export-xdpi="299"
       inkscape:export-ydpi="299" />
    <circle
       inkscape:export-ydpi="299"
       inkscape:export-xdpi="299"
       transform="matrix(0.22753426,0,0,0.22753426,105.93091,84.636348)"
       r="26.061806"
       cy="83.504669"
       cx="163.19528"
       id="path1667"
       style="opacity:1;fill:#ffffff;fill-opacity:1;stroke:none;stroke-width:1.74424;stroke-linecap:butt;stroke-linejoin:miter;stroke-miterlimit:4.5;stroke-dasharray:none;stroke-opacity:1;filter:url(#filter1937)" />
    <rect
       inkscape:export-ydpi="54.515282"
       inkscape:export-xdpi="54.515282"
       y="279.55853"
       x="161.70926"
       height="4.6592479"
       width="4.6592479"
       id="rect1941"
       style="opacity:1;fill:#0f0f0f;fill-opacity:1;stroke:none;stroke-width:0.396875;stroke-linecap:butt;stroke-linejoin:miter;stroke-miterlimit:4.5;stroke-dasharray:none;stroke-opacity:1" />
    <path
       inkscape:export-ydpi="185.14299"
       inkscape:export-xdpi="185.14299"
       sodipodi:nodetypes="ccccccccc"
       id="path1943"
       d="M 182.03333,211.66666 H 177.8 l -4.23334,4.23333 V 228.6 l 4.23334,4.23333 h 4.23333 L 186.26667,228.6 v -12.70001 z"
       style="fill:#ff405f;fill-opacity:0.48902974;stroke:#ff405f;stroke-width:1.05833;stroke-linecap:butt;stroke-linejoin:miter;stroke-miterlimit:4;stroke-dasharray:none;stroke-opacity:1" />
    <circle
       r="4.2333331"
       cy="190.5"
       cx="173.56667"
       id="path1945"
       style="opacity:1;fill:#800080;fill-opacity:1;stroke:#ff00ff;stroke-width:1.05833;stroke-linecap:butt;stroke-linejoin:miter;stroke-miterlimit:4;stroke-dasharray:none;stroke-opacity:1"
       inkscape:export-xdpi="299"
       inkscape:export-ydpi="299" />
    <circle
       style="opacity:1;fill:#800080;fill-opacity:1;stroke:#ff00ff;stroke-width:1.05833;stroke-linecap:butt;stroke-linejoin:miter;stroke-miterlimit:4;stroke-dasharray:none;stroke-opacity:1"
       id="circle1947"
       cx="173.56667"
       cy="173.56667"
       r="2.1128922" />
    <path
       sodipodi:nodetypes="ssscs"
       style="fill:#ff6600;stroke:none;stroke-width:0.264583px;stroke-linecap:butt;stroke-linejoin:miter;stroke-opacity:1"
       d="m 189.16681,194.10294 c 0.10067,0.62035 0.70471,1.33318 1.33318,1.33318 0.62847,0 1.23252,-0.71283 1.33319,-1.33318 0.15917,-0.98087 -1.33319,-2.66637 -1.33319,-2.66637 0,0 -1.49235,1.6855 -1.33318,2.66637 z"
       id="path1949"
       inkscape:export-xdpi="299"
       inkscape:export-ydpi="299" />
    <path
       inkscape:export-ydpi="299"
       inkscape:export-xdpi="299"
       id="path1951"
       d="m 144.34184,268.07834 1.33318,-1.33318 1.33319,1.33318 -1.33319,2.66637 z"
       style="fill:#ff00ff;fill-opacity:1;stroke:none;stroke-width:0.207981px;stroke-linecap:butt;stroke-linejoin:miter;stroke-opacity:1;filter:url(#filter1663)"
       transform="matrix(1.2254989,0,0,-1.320574,11.975422,548.03843)" />
    <g
       transform="rotate(180,194.73326,171.28852)"
       id="g1969">
      <path
         id="circle1953"
         style="opacity:1;fill:#800080;fill-opacity:1;stroke:#ff00ff;stroke-width:1.05833;stroke-linecap:butt;stroke-linejoin:miter;stroke-miterlimit:4;stroke-dasharray:none;stroke-opacity:1"
         d="m 199.33905,170.15037 a 2.8788094,2.7900809 0 0 0 -3.93252,1.02124 2.8788094,2.7900809 0 0 0 1.05371,3.81131 2.8788094,2.7900809 0 0 0 1.43949,0.37367 2.8788094,2.7900809 0 0 1 -9e-5,-2.78994 2.8788094,2.7900809 0 0 1 2.49304,-1.39491 2.8788094,2.7900809 0 0 0 -1.05363,-1.02137 z" />
      <path
         d="m 190.12746,170.15037 a 2.8788094,2.7900809 0 0 1 3.93252,1.02124 2.8788094,2.7900809 0 0 1 -1.0537,3.81131 2.8788094,2.7900809 0 0 1 -1.4395,0.37366 2.8788094,2.7900809 0 0 0 9e-5,-2.78994 2.8788094,2.7900809 0 0 0 -2.49304,-1.39489 2.8788094,2.7900809 0 0 1 1.05363,-1.02138 z"
         style="opacity:1;fill:#800080;fill-opacity:1;stroke:#ff00ff;stroke-width:1.05833;stroke-linecap:butt;stroke-linejoin:miter;stroke-miterlimit:4;stroke-dasharray:none;stroke-opacity:1"
         id="path1962" />
      <circle
         style="opacity:1;fill:#800000;fill-opacity:1;stroke:#ff3d66;stroke-width:1.05833;stroke-linecap:butt;stroke-linejoin:miter;stroke-miterlimit:4;stroke-dasharray:none;stroke-opacity:1"
         id="circle1964"
         cx="194.73334"
         cy="168.37291"
         r="1.1524677" />
    </g>
    <path
       inkscape:export-ydpi="299"
       inkscape:export-xdpi="299"
       style="fill:#ff405f;fill-opacity:0.48902974;stroke:#ff405f;stroke-width:1.05833;stroke-linecap:butt;stroke-linejoin:miter;stroke-miterlimit:4;stroke-dasharray:none;stroke-opacity:1"
       d="m 232.83333,207.43333 h -21.16667 l -4.23334,4.23333 -1e-5,8.46667 4.23334,4.23333 h 21.16667 l 4.23334,-4.23333 10e-6,-8.46667 z"
       id="path1971"
       sodipodi:nodetypes="ccccccccc" />
    <rect
       inkscape:export-ydpi="288.19638"
       inkscape:export-xdpi="288.19638"
       y="84.666664"
       x="186.26666"
       height="8.4666662"
       width="3.5138433"
       id="rect1060"
       style="fill:#000000;fill-opacity:1;stroke:none;stroke-width:0.79375" />
    <rect
       inkscape:export-ydpi="288.19638"
       inkscape:export-xdpi="288.19638"
       style="fill:#000000;fill-opacity:1;stroke:none;stroke-width:0.79375"
       id="rect1079"
       width="3.5138433"
       height="8.4666662"
       x="190.5"
       y="84.666664" />
    <rect
       inkscape:export-ydpi="288.19638"
       inkscape:export-xdpi="288.19638"
       y="84.666664"
       x="194.73334"
       height="8.4666662"
       width="3.5138433"
       id="rect1081"
       style="fill:#000000;fill-opacity:1;stroke:none;stroke-width:0.79375" />
    <rect
       inkscape:export-ydpi="288.19638"
       inkscape:export-xdpi="288.19638"
       style="fill:#000000;fill-opacity:1;stroke:none;stroke-width:0.79375"
       id="rect1083"
       width="3.5138433"
       height="8.4666662"
       x="198.96666"
       y="84.666664" />
    <rect
       inkscape:export-ydpi="288.19638"
       inkscape:export-xdpi="288.19638"
       y="84.666664"
       x="203.2"
       height="8.4666662"
       width="3.5138433"
       id="rect1085"
       style="fill:#000000;fill-opacity:1;stroke:none;stroke-width:0.79375" />
    <rect
       inkscape:export-ydpi="288.19638"
       inkscape:export-xdpi="288.19638"
       style="fill:#ffffff;fill-opacity:1;stroke:none;stroke-width:0.79375"
       id="rect1087"
       width="3.5138433"
       height="8.4666662"
       x="186.26666"
       y="97.366669" />
    <rect
       inkscape:export-ydpi="288.19638"
       inkscape:export-xdpi="288.19638"
       y="97.366669"
       x="190.5"
       height="8.4666662"
       width="3.5138433"
       id="rect1089"
       style="fill:#ffffff;fill-opacity:1;stroke:none;stroke-width:0.79375" />
    <rect
       inkscape:export-ydpi="288.19638"
       inkscape:export-xdpi="288.19638"
       style="fill:#ffffff;fill-opacity:1;stroke:none;stroke-width:0.79375"
       id="rect1091"
       width="3.5138433"
       height="8.4666662"
       x="194.73334"
       y="97.366669" />
    <rect
       inkscape:export-ydpi="288.19638"
       inkscape:export-xdpi="288.19638"
       y="97.366669"
       x="198.96666"
       height="8.4666662"
       width="3.5138433"
       id="rect1093"
       style="fill:#ffffff;fill-opacity:1;stroke:none;stroke-width:0.79375" />
    <rect
       inkscape:export-ydpi="288.19638"
       inkscape:export-xdpi="288.19638"
       style="fill:#ffffff;fill-opacity:1;stroke:none;stroke-width:0.79375"
       id="rect1095"
       width="3.5138433"
       height="8.4666662"
       x="203.2"
       y="97.366669" />
  </g>
</svg>
